<svg width="28" height="28" viewBox="0 0 28 28" fill="none" xmlns="http://www.w3.org/2000/svg">
<path d="M16.6636 4.08447L7.59509 13.3875C7.43582 13.5509 7.34668 13.77 7.34668 13.9982C7.34668 14.2264 7.43582 14.4456 7.59509 14.609L16.6636 23.9155C16.7378 23.9917 16.8265 24.0522 16.9245 24.0936C17.0225 24.135 17.1277 24.1563 17.2341 24.1563C17.3404 24.1563 17.4457 24.135 17.5437 24.0936C17.6417 24.0522 17.7304 23.9917 17.8046 23.9155C17.9572 23.7592 18.0427 23.5494 18.0427 23.331C18.0427 23.1125 17.9572 22.9027 17.8046 22.7465L9.27684 13.9982L17.8046 5.25172C17.9567 5.09554 18.0419 4.88613 18.0419 4.6681C18.0419 4.45007 17.9567 4.24066 17.8046 4.08447C17.7304 4.00827 17.6417 3.94771 17.5437 3.90635C17.4457 3.865 17.3404 3.84369 17.2341 3.84369C17.1277 3.84369 17.0225 3.865 16.9245 3.90635C16.8265 3.94771 16.7378 4.00827 16.6636 4.08447Z" fill="#434343" stroke="#434343"/>
</svg>
