<svg width="60" height="61" viewBox="0 0 60 61" fill="none" xmlns="http://www.w3.org/2000/svg">
<path d="M31.0933 33.2651C31.2058 31.2767 32.184 29.5212 33.6644 28.2804C35.1147 27.0607 37.0619 26.3149 39.1998 26.3149C41.3265 26.3149 43.2733 27.0603 44.7217 28.2804C46.2044 29.5212 47.1765 31.2767 47.2928 33.2651C47.4053 35.3042 46.5789 37.2073 45.1342 38.6168C43.6539 40.0465 41.559 40.9498 39.1998 40.9498C36.8387 40.9498 34.7345 40.0521 33.2636 38.6168C31.8133 37.2078 30.9887 35.3149 31.1045 33.2745L31.0933 33.2651Z" fill="#235785"/>
<path d="M18.3962 37.4699C18.4094 38.248 18.6606 39.7621 19.0337 40.9405C19.8222 43.4418 21.1604 45.756 23.0134 47.7838C24.9175 49.8768 27.2669 51.5596 29.9743 52.7572C32.8211 54.0088 35.9111 54.6496 39.1173 54.6496C42.3236 54.6454 45.4136 53.9933 48.2598 52.7268C50.9673 51.5165 53.3176 49.8355 55.2208 47.7313C57.0836 45.681 58.4176 43.3687 59.2009 40.8655C59.5932 39.6222 59.844 38.3386 59.9486 37.0391C60.0461 35.7782 60.0048 34.5055 59.8253 33.2329C59.4743 30.7806 58.609 28.4301 57.2861 26.3357C56.0795 24.3904 54.5129 22.6982 52.6501 21.2671L52.6558 21.2652L33.9268 6.96553C33.91 6.95241 33.895 6.93928 33.8781 6.92803C32.6504 5.98959 30.5762 5.99334 29.2328 6.93178C27.8668 7.88381 27.7094 9.456 28.9253 10.4455L28.9197 10.4493L36.7393 16.7699L12.932 16.7938H12.9001C10.9328 16.7957 9.0381 18.0777 8.66732 19.7062C8.28294 21.3566 9.62123 22.7343 11.6729 22.7343L11.6692 22.7418L23.7329 22.7193L2.14701 39.1208C2.12076 39.1415 2.09076 39.1621 2.06451 39.1827C0.0324762 40.7268 -0.623305 43.303 0.656383 44.9221C1.95857 46.573 4.71857 46.5843 6.77216 44.9315L18.5181 35.3643C18.5181 35.3643 18.3456 36.6571 18.3606 37.4254L18.3962 37.4699ZM48.6587 41.7913C46.2362 44.2419 42.8387 45.6397 39.1773 45.6397C35.5065 45.6454 32.109 44.2719 29.6861 41.8232C28.502 40.6237 27.6343 39.2577 27.0948 37.7962C26.5674 36.358 26.3639 34.8211 26.499 33.2952C26.6274 31.8064 27.0713 30.3621 27.8012 29.0582C28.5076 27.786 29.484 26.6301 30.6793 25.6518C33.0386 23.7496 36.0325 22.708 39.1637 22.708C42.3086 22.7043 45.3029 23.7271 47.6622 25.6312C48.8575 26.6038 49.8301 27.7541 50.5403 29.0263C51.2719 30.33 51.7153 31.7755 51.8406 33.2652C51.9739 34.7904 51.7705 36.3263 51.2448 37.7643C50.7072 39.2371 49.8376 40.603 48.6512 41.8026L48.6587 41.7913Z" fill="#E87500"/>
</svg>
