<svg width="255" height="255" viewBox="0 0 255 255" fill="none" xmlns="http://www.w3.org/2000/svg">
<g clip-path="url(#clip0_9_24)">
<path d="M195.234 0H59.7656C26.758 0 0 26.758 0 59.7656V195.234C0 228.242 26.758 255 59.7656 255H195.234C228.242 255 255 228.242 255 195.234V59.7656C255 26.758 228.242 0 195.234 0Z" fill="#2396ED"/>
<path d="M140.635 121.646H161.272V102.975H140.635V121.646ZM116.07 121.646H136.705V102.975H116.07V121.646ZM91.9942 121.646H112.63V102.975H91.9942V121.646ZM67.9186 121.646H88.0646V102.975H67.9196L67.9186 121.646ZM43.353 121.646H63.989V102.975H43.353V121.646ZM67.9196 99.0446H88.0636V80.3748H67.9196V99.0446ZM91.9952 99.0446H112.63V80.3748H91.9942L91.9952 99.0446ZM116.07 99.0446H136.705V80.3748H116.07V99.0446ZM116.07 76.4432H136.705V57.7734H116.07V76.4432ZM227.109 113.295C227.109 113.295 218.265 104.941 200.086 107.89C198.121 93.6408 182.89 85.2885 182.89 85.2885C182.89 85.2885 168.642 102.485 178.959 121.647C176.012 123.121 171.098 125.086 163.728 125.086H28.6138C26.1564 134.422 26.1564 196.328 93.9595 196.328C142.601 196.328 178.959 173.728 196.156 132.456C221.705 134.421 227.109 113.295 227.109 113.295Z" fill="white"/>
</g>
<defs>
<clipPath id="clip0_9_24">
<rect width="255" height="255" fill="white"/>
</clipPath>
</defs>
</svg>
