<svg width="61" height="60" viewBox="0 0 61 60" fill="none" xmlns="http://www.w3.org/2000/svg">
<path d="M46.3374 0H14.4624C6.6959 0 0.399902 6.296 0.399902 14.0625V45.9375C0.399902 53.704 6.6959 60 14.4624 60H46.3374C54.1039 60 60.3999 53.704 60.3999 45.9375V14.0625C60.3999 6.296 54.1039 0 46.3374 0Z" fill="#242938"/>
<path d="M53.8374 42.876C53.1551 43.1345 52.4017 43.134 51.7198 42.8747C51.0378 42.6153 50.4745 42.1151 50.1364 41.4685C48.0122 38.2888 45.6666 35.2524 43.4122 32.151L42.4346 30.8478C39.7501 34.4446 37.0655 37.8978 34.6156 41.4817C34.2965 42.0995 33.7637 42.5803 33.1164 42.8345C32.469 43.0886 31.7514 43.0988 31.0972 42.8631L41.1706 29.3492L31.8008 17.1383C32.4752 16.8948 33.2131 16.8914 33.8897 17.1289C34.5664 17.3663 35.1404 17.8299 35.5149 18.4414C37.6911 21.6214 40.1021 24.6578 42.4997 27.8767C44.9108 24.6838 47.2955 21.6343 49.524 18.4806C49.8448 17.8726 50.3779 17.4039 51.0219 17.1636C51.6659 16.9233 52.3758 16.9282 53.0164 17.1774L49.3805 21.9992C47.7516 24.1494 46.1487 26.3127 44.4547 28.4108C44.3181 28.533 44.2089 28.6827 44.1342 28.85C44.0594 29.0173 44.0207 29.1985 44.0207 29.3817C44.0207 29.5649 44.0594 29.7461 44.1342 29.9134C44.2089 30.0807 44.3181 30.2304 44.4547 30.3526C47.5693 34.4837 50.6576 38.6277 53.8374 42.876ZM6.9624 29.1798C7.23615 27.8767 7.40537 26.4561 7.78342 25.127C10.0379 17.1125 19.2251 13.7762 25.5455 18.7414C29.2465 21.6477 30.1719 25.7656 29.9895 30.4049H9.13881C8.7999 38.6931 14.7814 43.6972 22.4309 41.143C23.6718 40.6991 24.7827 39.9532 25.6632 38.9726C26.5436 37.992 27.1661 36.8076 27.4742 35.5262C27.8783 34.2231 28.5298 34.0016 29.7678 34.3794C29.5639 35.9659 29.0029 37.4855 28.1272 38.824C27.2514 40.1625 26.0837 41.285 24.7116 42.1072C22.4447 43.3471 19.8437 43.8383 17.2807 43.5107C14.7177 43.183 12.324 42.0532 10.4419 40.2828C8.57994 38.1892 7.45407 35.5438 7.23615 32.7505C7.23615 32.3075 7.0667 31.8643 6.97553 31.4474C6.96691 30.6915 6.96253 29.9357 6.9624 29.1798ZM9.16482 28.6194H28.0217C27.9043 22.6119 24.1121 18.3505 19.0559 18.3116C13.4262 18.2333 9.39943 22.4033 9.1517 28.5934L9.16482 28.6194Z" fill="white"/>
</svg>
