<svg width="255" height="255" viewBox="0 0 255 255" fill="none" xmlns="http://www.w3.org/2000/svg">
<g clip-path="url(#clip0_9_16)">
<path d="M195.234 0H59.7656C26.758 0 0 26.758 0 59.7656V195.234C0 228.242 26.758 255 59.7656 255H195.234C228.242 255 255 228.242 255 195.234V59.7656C255 26.758 228.242 0 195.234 0Z" fill="#049789"/>
<path d="M127.002 40.8398C79.4315 40.8398 40.8398 79.4315 40.8398 127.002C40.8398 174.572 79.4315 213.164 127.002 213.164C174.572 213.164 213.164 174.572 213.164 127.002C213.164 79.4315 174.572 40.8398 127.002 40.8398ZM122.513 196.07V142.024H92.4684L135.635 57.9338V111.98H164.558L122.513 196.07Z" fill="white"/>
</g>
<defs>
<clipPath id="clip0_9_16">
<rect width="255" height="255" fill="white"/>
</clipPath>
</defs>
</svg>
