<svg width="61" height="61" viewBox="0 0 61 61" fill="none" xmlns="http://www.w3.org/2000/svg">
<g clip-path="url(#clip0_2033_1177)">
<path d="M21.8281 60.9062C27.4062 60.9062 31.9062 56.4062 31.9062 50.8281V40.75H21.8281C16.25 40.75 11.75 45.25 11.75 50.8281C11.75 56.4062 16.25 60.9062 21.8281 60.9062Z" fill="#0ACF83"/>
<path d="M11.75 30.6719C11.75 25.0938 16.25 20.5938 21.8281 20.5938H31.9062V40.75H21.8281C16.25 40.75 11.75 36.25 11.75 30.6719Z" fill="#A259FF"/>
<path d="M11.75 10.5156C11.75 4.9375 16.25 0.4375 21.8281 0.4375H31.9062V20.5938H21.8281C16.25 20.5938 11.75 16.0938 11.75 10.5156Z" fill="#F24E1E"/>
<path d="M31.9062 0.4375H41.9844C47.5625 0.4375 52.0625 4.9375 52.0625 10.5156C52.0625 16.0938 47.5625 20.5938 41.9844 20.5938H31.9062V0.4375Z" fill="#FF7262"/>
<path d="M52.0625 30.6719C52.0625 36.25 47.5625 40.75 41.9844 40.75C36.4062 40.75 31.9062 36.25 31.9062 30.6719C31.9062 25.0938 36.4062 20.5938 41.9844 20.5938C47.5625 20.5938 52.0625 25.0938 52.0625 30.6719Z" fill="#1ABCFE"/>
</g>
<defs>
<clipPath id="clip0_2033_1177">
<rect width="60" height="60" fill="white" transform="translate(0.5 0.4375)"/>
</clipPath>
</defs>
</svg>
