<svg width="642" height="642" viewBox="0 0 642 642" fill="none" xmlns="http://www.w3.org/2000/svg">
<path d="M167.098 602.264C167.153 601.183 167.181 600.091 167.181 598.996C167.181 564.23 138.996 536.046 104.23 536.046C69.4632 536.046 41.2798 564.23 41.2798 598.996C41.2798 600.091 41.3079 601.183 41.363 602.264H167.098Z" fill="url(#paint0_radial_36_2)"/>
<path d="M167.098 602.264C167.153 601.183 167.181 600.091 167.181 598.996C167.181 564.23 138.996 536.046 104.23 536.046C69.4632 536.046 41.2798 564.23 41.2798 598.996C41.2798 600.091 41.3079 601.183 41.363 602.264H167.098Z" fill="url(#paint1_radial_36_2)"/>
<path d="M167.098 602.264C167.153 601.183 167.181 600.091 167.181 598.996C167.181 564.23 138.996 536.046 104.23 536.046C69.4632 536.046 41.2798 564.23 41.2798 598.996C41.2798 600.091 41.3079 601.183 41.363 602.264H167.098Z" fill="url(#paint2_radial_36_2)"/>
<path d="M600.637 602.264C600.693 601.183 600.721 600.091 600.721 598.996C600.721 564.23 572.538 536.046 537.771 536.046C503.005 536.046 474.821 564.23 474.821 598.996C474.821 600.091 474.849 601.183 474.904 602.264H600.637Z" fill="#FFD2B6"/>
<path d="M600.637 602.264C600.693 601.183 600.721 600.091 600.721 598.996C600.721 564.23 572.538 536.046 537.771 536.046C503.005 536.046 474.821 564.23 474.821 598.996C474.821 600.091 474.849 601.183 474.904 602.264H600.637Z" fill="url(#paint3_radial_36_2)"/>
<path d="M600.637 602.264C600.693 601.183 600.721 600.091 600.721 598.996C600.721 564.23 572.538 536.046 537.771 536.046C503.005 536.046 474.821 564.23 474.821 598.996C474.821 600.091 474.849 601.183 474.904 602.264H600.637Z" fill="url(#paint4_linear_36_2)"/>
<path d="M321.002 311.36C199.222 311.36 100.314 410.068 100.314 532.048V602.266H541.689V532.048C541.689 410.068 442.781 311.36 321.002 311.36Z" fill="url(#paint5_linear_36_2)"/>
<path d="M180.164 361.516C131.211 402.243 100.315 463.634 100.516 532.047L100.917 602.266L181.167 601.865L180.164 361.516Z" fill="url(#paint6_linear_36_2)"/>
<path d="M461.439 361.717V602.066H541.689V531.847C541.689 463.434 510.392 402.243 461.439 361.717Z" fill="url(#paint7_linear_36_2)"/>
<path d="M418.438 242.307C425.163 242.088 431.462 239.809 436.586 236.116V254.794C436.586 272.714 425.911 288.675 409.684 295.3C413.101 288.025 415.448 280.097 416.624 271.626L418.438 242.307Z" fill="url(#paint8_radial_36_2)"/>
<path d="M223.378 242.307C216.653 242.088 210.355 239.809 205.231 236.116V254.794C205.231 272.714 215.907 288.675 232.133 295.3C228.717 288.025 226.367 280.097 225.194 271.626L223.378 242.307Z" fill="url(#paint9_radial_36_2)"/>
<g filter="url(#filter0_ii_36_2)">
<path d="M224.11 272.706C229.272 311.874 262.604 341.036 302.067 341.036H339.917C379.378 341.036 412.712 311.874 417.872 272.706C420.239 234.914 422.621 197.273 424.376 159.502C424.163 144.114 412.032 131.416 396.71 130.771H368.618C349.465 130.771 332.121 119.472 324.246 101.824C322.226 96.7665 317.331 93.4307 311.904 93.4307H286.366C249.337 93.4307 219.329 123.776 219.329 161.223C219.329 198.554 221.661 235.281 224.11 272.706Z" fill="url(#paint10_radial_36_2)"/>
</g>
<path d="M224.11 272.706C229.272 311.874 262.604 341.036 302.067 341.036H339.917C379.378 341.036 412.712 311.874 417.872 272.706C420.239 234.914 422.621 197.273 424.376 159.502C424.163 144.114 412.032 131.416 396.71 130.771H368.618C349.465 130.771 332.121 119.472 324.246 101.824C322.226 96.7665 317.331 93.4307 311.904 93.4307H286.366C249.337 93.4307 219.329 123.776 219.329 161.223C219.329 198.554 221.661 235.281 224.11 272.706Z" fill="url(#paint11_linear_36_2)"/>
<path d="M224.11 272.706C229.272 311.874 262.604 341.036 302.067 341.036H339.917C379.378 341.036 412.712 311.874 417.872 272.706C420.239 234.914 422.621 197.273 424.376 159.502C424.163 144.114 412.032 131.416 396.71 130.771H368.618C349.465 130.771 332.121 119.472 324.246 101.824C322.226 96.7665 317.331 93.4307 311.904 93.4307H286.366C249.337 93.4307 219.329 123.776 219.329 161.223C219.329 198.554 221.661 235.281 224.11 272.706Z" fill="url(#paint12_radial_36_2)"/>
<path d="M224.11 272.706C229.272 311.874 262.604 341.036 302.067 341.036H339.917C379.378 341.036 412.712 311.874 417.872 272.706C420.239 234.914 422.621 197.273 424.376 159.502C424.163 144.114 412.032 131.416 396.71 130.771H368.618C349.465 130.771 332.121 119.472 324.246 101.824C322.226 96.7665 317.331 93.4307 311.904 93.4307H286.366C249.337 93.4307 219.329 123.776 219.329 161.223C219.329 198.554 221.661 235.281 224.11 272.706Z" fill="url(#paint13_radial_36_2)"/>
<path d="M224.11 272.706C229.272 311.874 262.604 341.036 302.067 341.036H339.917C379.378 341.036 412.712 311.874 417.872 272.706C420.239 234.914 422.621 197.273 424.376 159.502C424.163 144.114 412.032 131.416 396.71 130.771H368.618C349.465 130.771 332.121 119.472 324.246 101.824C322.226 96.7665 317.331 93.4307 311.904 93.4307H286.366C249.337 93.4307 219.329 123.776 219.329 161.223C219.329 198.554 221.661 235.281 224.11 272.706Z" fill="url(#paint14_radial_36_2)"/>
<path d="M224.11 272.706C229.272 311.874 262.604 341.036 302.067 341.036H339.917C379.378 341.036 412.712 311.874 417.872 272.706C420.239 234.914 422.621 197.273 424.376 159.502C424.163 144.114 412.032 131.416 396.71 130.771H368.618C349.465 130.771 332.121 119.472 324.246 101.824C322.226 96.7665 317.331 93.4307 311.904 93.4307H286.366C249.337 93.4307 219.329 123.776 219.329 161.223C219.329 198.554 221.661 235.281 224.11 272.706Z" fill="url(#paint15_radial_36_2)"/>
<path d="M224.11 272.706C229.272 311.874 262.604 341.036 302.067 341.036H339.917C379.378 341.036 412.712 311.874 417.872 272.706C420.239 234.914 422.621 197.273 424.376 159.502C424.163 144.114 412.032 131.416 396.71 130.771H368.618C349.465 130.771 332.121 119.472 324.246 101.824C322.226 96.7665 317.331 93.4307 311.904 93.4307H286.366C249.337 93.4307 219.329 123.776 219.329 161.223C219.329 198.554 221.661 235.281 224.11 272.706Z" fill="url(#paint16_radial_36_2)"/>
<path d="M224.11 272.706C229.272 311.874 262.604 341.036 302.067 341.036H339.917C379.378 341.036 412.712 311.874 417.872 272.706C420.239 234.914 422.621 197.273 424.376 159.502C424.163 144.114 412.032 131.416 396.71 130.771H368.618C349.465 130.771 332.121 119.472 324.246 101.824C322.226 96.7665 317.331 93.4307 311.904 93.4307H286.366C249.337 93.4307 219.329 123.776 219.329 161.223C219.329 198.554 221.661 235.281 224.11 272.706Z" fill="url(#paint17_radial_36_2)"/>
<g filter="url(#filter1_f_36_2)">
<path d="M312.857 206.718L301.004 243.601C298.977 251.186 303.839 258.772 310.722 258.772H325.402C332.285 258.772 337.144 251.07 335.12 243.601L325.199 206.718C323.072 198.548 315.084 198.548 312.857 206.718Z" fill="#D69790"/>
</g>
<g filter="url(#filter2_f_36_2)">
<path d="M313.238 202.892L302.575 239.775C300.4 247.361 305.622 254.948 313.021 254.948H328.796C336.195 254.948 341.418 247.244 339.243 239.775L328.58 202.892C326.295 194.723 315.631 194.723 313.238 202.892Z" fill="#F6BFAB"/>
<path d="M313.238 202.892L302.575 239.775C300.4 247.361 305.622 254.948 313.021 254.948H328.796C336.195 254.948 341.418 247.244 339.243 239.775L328.58 202.892C326.295 194.723 315.631 194.723 313.238 202.892Z" fill="url(#paint18_linear_36_2)"/>
<path d="M313.238 202.892L302.575 239.775C300.4 247.361 305.622 254.948 313.021 254.948H328.796C336.195 254.948 341.418 247.244 339.243 239.775L328.58 202.892C326.295 194.723 315.631 194.723 313.238 202.892Z" fill="url(#paint19_radial_36_2)"/>
<path d="M313.238 202.892L302.575 239.775C300.4 247.361 305.622 254.948 313.021 254.948H328.796C336.195 254.948 341.418 247.244 339.243 239.775L328.58 202.892C326.295 194.723 315.631 194.723 313.238 202.892Z" fill="url(#paint20_linear_36_2)"/>
<path d="M313.238 202.892L302.575 239.775C300.4 247.361 305.622 254.948 313.021 254.948H328.796C336.195 254.948 341.418 247.244 339.243 239.775L328.58 202.892C326.295 194.723 315.631 194.723 313.238 202.892Z" fill="url(#paint21_radial_36_2)"/>
<path d="M313.238 202.892L302.575 239.775C300.4 247.361 305.622 254.948 313.021 254.948H328.796C336.195 254.948 341.418 247.244 339.243 239.775L328.58 202.892C326.295 194.723 315.631 194.723 313.238 202.892Z" fill="url(#paint22_linear_36_2)"/>
</g>
<g filter="url(#filter3_f_36_2)">
<path d="M293.807 267.421C301.628 271.498 310.959 273.841 320.908 273.841C330.955 273.841 340.186 271.5 348.006 267.421C350.03 266.392 352.175 266.984 353.451 268.31C354.747 269.656 355.227 271.827 353.927 273.781M293.807 267.421L352.673 272.948M293.807 267.421C291.763 266.38 289.618 267.028 288.356 268.356C287.086 269.692 286.571 271.865 287.895 273.791M293.807 267.421L289.141 272.948M353.927 273.781L352.673 272.948M353.927 273.781C353.929 273.779 353.927 273.783 353.927 273.781ZM353.927 273.781C346.937 284.372 334.765 291.426 320.908 291.426C307.055 291.426 294.885 284.376 287.895 273.791M352.673 272.948C345.954 283.132 334.245 289.921 320.908 289.921C307.57 289.921 295.862 283.132 289.141 272.948M287.895 273.791C287.897 273.795 287.891 273.785 287.895 273.791ZM287.895 273.791L289.141 272.948" stroke="url(#paint23_linear_36_2)" stroke-width="0.15"/>
</g>
<path d="M320.908 275.346C310.726 275.346 301.156 272.948 293.111 268.755C290.363 267.357 287.409 270.453 289.141 272.948C295.862 283.132 307.57 289.921 320.908 289.921C334.245 289.921 345.954 283.132 352.673 272.948C354.404 270.352 351.451 267.357 348.702 268.755C340.659 272.948 331.19 275.346 320.908 275.346Z" fill="url(#paint24_radial_36_2)"/>
<g filter="url(#filter4_ii_36_2)">
<path d="M418.307 83.9597C428.629 87.5108 437.886 94.7205 443.738 105.051C453.101 121.515 451.719 141.207 441.61 155.734C438.099 160.899 436.183 167.033 436.183 173.274V197.109C432.431 194.495 427.48 192.557 422.797 191.729L424.372 159.5C424.159 144.112 412.03 131.415 396.706 130.769H368.614C349.463 130.769 332.117 119.47 324.244 101.823C322.222 96.765 317.327 93.4292 311.9 93.4292H286.362C249.333 93.4292 219.325 123.775 219.325 161.222L219.941 192.065C214.845 192.814 209.523 194.517 205.494 197.355V173.274C205.494 167.033 203.578 160.899 200.066 155.734C190.49 141.637 188.787 122.698 197.193 106.665C203.047 95.5813 212.516 87.8336 223.263 84.0675C234.755 79.9783 244.544 72.2306 251.036 61.7927C259.336 48.5568 273.913 39.7332 290.619 39.7332C297.11 39.7332 303.281 41.1321 309.027 43.4995C316.689 46.8353 325.307 46.8353 332.969 43.4995C338.609 41.1321 344.78 39.7332 351.27 39.7332C368.189 39.7332 382.979 48.8799 391.173 62.4383C397.346 72.6609 407.028 80.0859 418.307 83.9597Z" fill="url(#paint25_linear_36_2)"/>
<path d="M418.307 83.9597C428.629 87.5108 437.886 94.7205 443.738 105.051C453.101 121.515 451.719 141.207 441.61 155.734C438.099 160.899 436.183 167.033 436.183 173.274V197.109C432.431 194.495 427.48 192.557 422.797 191.729L424.372 159.5C424.159 144.112 412.03 131.415 396.706 130.769H368.614C349.463 130.769 332.117 119.47 324.244 101.823C322.222 96.765 317.327 93.4292 311.9 93.4292H286.362C249.333 93.4292 219.325 123.775 219.325 161.222L219.941 192.065C214.845 192.814 209.523 194.517 205.494 197.355V173.274C205.494 167.033 203.578 160.899 200.066 155.734C190.49 141.637 188.787 122.698 197.193 106.665C203.047 95.5813 212.516 87.8336 223.263 84.0675C234.755 79.9783 244.544 72.2306 251.036 61.7927C259.336 48.5568 273.913 39.7332 290.619 39.7332C297.11 39.7332 303.281 41.1321 309.027 43.4995C316.689 46.8353 325.307 46.8353 332.969 43.4995C338.609 41.1321 344.78 39.7332 351.27 39.7332C368.189 39.7332 382.979 48.8799 391.173 62.4383C397.346 72.6609 407.028 80.0859 418.307 83.9597Z" fill="url(#paint26_radial_36_2)"/>
<path d="M418.307 83.9597C428.629 87.5108 437.886 94.7205 443.738 105.051C453.101 121.515 451.719 141.207 441.61 155.734C438.099 160.899 436.183 167.033 436.183 173.274V197.109C432.431 194.495 427.48 192.557 422.797 191.729L424.372 159.5C424.159 144.112 412.03 131.415 396.706 130.769H368.614C349.463 130.769 332.117 119.47 324.244 101.823C322.222 96.765 317.327 93.4292 311.9 93.4292H286.362C249.333 93.4292 219.325 123.775 219.325 161.222L219.941 192.065C214.845 192.814 209.523 194.517 205.494 197.355V173.274C205.494 167.033 203.578 160.899 200.066 155.734C190.49 141.637 188.787 122.698 197.193 106.665C203.047 95.5813 212.516 87.8336 223.263 84.0675C234.755 79.9783 244.544 72.2306 251.036 61.7927C259.336 48.5568 273.913 39.7332 290.619 39.7332C297.11 39.7332 303.281 41.1321 309.027 43.4995C316.689 46.8353 325.307 46.8353 332.969 43.4995C338.609 41.1321 344.78 39.7332 351.27 39.7332C368.189 39.7332 382.979 48.8799 391.173 62.4383C397.346 72.6609 407.028 80.0859 418.307 83.9597Z" fill="url(#paint27_radial_36_2)"/>
<path d="M418.307 83.9597C428.629 87.5108 437.886 94.7205 443.738 105.051C453.101 121.515 451.719 141.207 441.61 155.734C438.099 160.899 436.183 167.033 436.183 173.274V197.109C432.431 194.495 427.48 192.557 422.797 191.729L424.372 159.5C424.159 144.112 412.03 131.415 396.706 130.769H368.614C349.463 130.769 332.117 119.47 324.244 101.823C322.222 96.765 317.327 93.4292 311.9 93.4292H286.362C249.333 93.4292 219.325 123.775 219.325 161.222L219.941 192.065C214.845 192.814 209.523 194.517 205.494 197.355V173.274C205.494 167.033 203.578 160.899 200.066 155.734C190.49 141.637 188.787 122.698 197.193 106.665C203.047 95.5813 212.516 87.8336 223.263 84.0675C234.755 79.9783 244.544 72.2306 251.036 61.7927C259.336 48.5568 273.913 39.7332 290.619 39.7332C297.11 39.7332 303.281 41.1321 309.027 43.4995C316.689 46.8353 325.307 46.8353 332.969 43.4995C338.609 41.1321 344.78 39.7332 351.27 39.7332C368.189 39.7332 382.979 48.8799 391.173 62.4383C397.346 72.6609 407.028 80.0859 418.307 83.9597Z" fill="url(#paint28_radial_36_2)"/>
<path d="M418.307 83.9597C428.629 87.5108 437.886 94.7205 443.738 105.051C453.101 121.515 451.719 141.207 441.61 155.734C438.099 160.899 436.183 167.033 436.183 173.274V197.109C432.431 194.495 427.48 192.557 422.797 191.729L424.372 159.5C424.159 144.112 412.03 131.415 396.706 130.769H368.614C349.463 130.769 332.117 119.47 324.244 101.823C322.222 96.765 317.327 93.4292 311.9 93.4292H286.362C249.333 93.4292 219.325 123.775 219.325 161.222L219.941 192.065C214.845 192.814 209.523 194.517 205.494 197.355V173.274C205.494 167.033 203.578 160.899 200.066 155.734C190.49 141.637 188.787 122.698 197.193 106.665C203.047 95.5813 212.516 87.8336 223.263 84.0675C234.755 79.9783 244.544 72.2306 251.036 61.7927C259.336 48.5568 273.913 39.7332 290.619 39.7332C297.11 39.7332 303.281 41.1321 309.027 43.4995C316.689 46.8353 325.307 46.8353 332.969 43.4995C338.609 41.1321 344.78 39.7332 351.27 39.7332C368.189 39.7332 382.979 48.8799 391.173 62.4383C397.346 72.6609 407.028 80.0859 418.307 83.9597Z" fill="url(#paint29_radial_36_2)"/>
</g>
<g filter="url(#filter5_i_36_2)">
<path d="M395.797 157.45C392.282 154.389 388.195 151.145 382.004 149.196C375.901 147.275 368.255 146.758 357.678 148.052C354.629 148.425 352.458 151.201 352.831 154.25C353.204 157.301 355.979 159.471 359.03 159.098C368.682 157.917 374.597 158.53 378.662 159.81C382.64 161.063 385.332 163.091 388.488 165.841C390.805 167.859 394.32 167.617 396.339 165.3C398.357 162.983 398.114 159.468 395.797 157.45Z" fill="#202020"/>
</g>
<g filter="url(#filter6_i_36_2)">
<path d="M252.48 155.261C254.288 154.178 256.89 152.794 260.174 151.502C266.745 148.919 276.134 146.676 287.367 148.05C290.417 148.424 292.587 151.199 292.214 154.249C291.841 157.299 289.066 159.469 286.017 159.096C277.021 157.995 269.513 159.787 264.247 161.858C261.613 162.894 259.56 163.991 258.194 164.809C257.514 165.217 257.007 165.553 256.688 165.772C256.529 165.882 256.419 165.963 256.356 166.009L256.3 166.05C253.875 167.919 250.392 167.479 248.512 165.059C246.624 162.634 247.062 159.138 249.487 157.252L252.48 155.261Z" fill="#202020"/>
</g>
<g filter="url(#filter7_if_36_2)">
<path d="M325.572 104.567C325.105 103.67 324.661 102.755 324.246 101.822C322.224 96.7648 317.329 93.429 311.902 93.429H286.364C249.335 93.429 219.327 123.774 219.327 161.222V166.742C212.506 161.551 203.927 150.601 203.927 132.881C203.927 111.377 219.61 100.508 229.615 93.5741C232.44 91.6168 234.811 89.9731 236.25 88.4925C236.86 87.8635 237.526 87.1579 238.25 86.3905C245.262 78.9529 257.757 65.7009 279.575 59.9092C290.236 57.079 301.04 56.3865 309.823 56.5983C319.307 56.8272 325.996 65.0183 325.996 74.5047V104.297L325.572 104.567Z" fill="#23181C"/>
<path d="M325.572 104.567C325.105 103.67 324.661 102.755 324.246 101.822C322.224 96.7648 317.329 93.429 311.902 93.429H286.364C249.335 93.429 219.327 123.774 219.327 161.222V166.742C212.506 161.551 203.927 150.601 203.927 132.881C203.927 111.377 219.61 100.508 229.615 93.5741C232.44 91.6168 234.811 89.9731 236.25 88.4925C236.86 87.8635 237.526 87.1579 238.25 86.3905C245.262 78.9529 257.757 65.7009 279.575 59.9092C290.236 57.079 301.04 56.3865 309.823 56.5983C319.307 56.8272 325.996 65.0183 325.996 74.5047V104.297L325.572 104.567Z" fill="url(#paint30_radial_36_2)"/>
<path d="M325.572 104.567C325.105 103.67 324.661 102.755 324.246 101.822C322.224 96.7648 317.329 93.429 311.902 93.429H286.364C249.335 93.429 219.327 123.774 219.327 161.222V166.742C212.506 161.551 203.927 150.601 203.927 132.881C203.927 111.377 219.61 100.508 229.615 93.5741C232.44 91.6168 234.811 89.9731 236.25 88.4925C236.86 87.8635 237.526 87.1579 238.25 86.3905C245.262 78.9529 257.757 65.7009 279.575 59.9092C290.236 57.079 301.04 56.3865 309.823 56.5983C319.307 56.8272 325.996 65.0183 325.996 74.5047V104.297L325.572 104.567Z" fill="url(#paint31_radial_36_2)"/>
</g>
<g filter="url(#filter8_f_36_2)">
<path d="M425.49 170.106L424.904 157.443C424.691 142.126 412.034 129.487 396.712 128.844H368.62C350.787 128.844 334.522 119.094 326.01 103.572C326.01 103.572 324.834 100.85 323.602 96.1867C318.46 76.7303 337.062 61.8329 356.818 65.6646C376.346 69.452 398.592 76.0349 415.041 86.7627C450.04 109.591 443.913 150.732 425.49 170.106Z" fill="#1F151B"/>
<path d="M425.49 170.106L424.904 157.443C424.691 142.126 412.034 129.487 396.712 128.844H368.62C350.787 128.844 334.522 119.094 326.01 103.572C326.01 103.572 324.834 100.85 323.602 96.1867C318.46 76.7303 337.062 61.8329 356.818 65.6646C376.346 69.452 398.592 76.0349 415.041 86.7627C450.04 109.591 443.913 150.732 425.49 170.106Z" fill="url(#paint32_radial_36_2)"/>
<path d="M425.49 170.106L424.904 157.443C424.691 142.126 412.034 129.487 396.712 128.844H368.62C350.787 128.844 334.522 119.094 326.01 103.572C326.01 103.572 324.834 100.85 323.602 96.1867C318.46 76.7303 337.062 61.8329 356.818 65.6646C376.346 69.452 398.592 76.0349 415.041 86.7627C450.04 109.591 443.913 150.732 425.49 170.106Z" fill="url(#paint33_radial_36_2)"/>
<path d="M425.49 170.106L424.904 157.443C424.691 142.126 412.034 129.487 396.712 128.844H368.62C350.787 128.844 334.522 119.094 326.01 103.572C326.01 103.572 324.834 100.85 323.602 96.1867C318.46 76.7303 337.062 61.8329 356.818 65.6646C376.346 69.452 398.592 76.0349 415.041 86.7627C450.04 109.591 443.913 150.732 425.49 170.106Z" fill="url(#paint34_radial_36_2)"/>
</g>
<path d="M368.877 183.825C381.98 183.825 393.048 192.858 396.06 205.067C396.957 208.566 394.27 211.902 390.689 211.902H345.928C343.079 211.902 340.8 209.298 341.369 206.449C343.893 193.591 355.204 183.825 368.877 183.825Z" fill="white"/>
<path d="M364.726 189.276C374.655 189.276 382.632 197.333 382.632 207.181C382.632 208.809 382.387 210.436 381.98 211.902H347.392C346.985 210.355 346.74 208.809 346.74 207.181C346.74 197.333 354.797 189.276 364.726 189.276Z" fill="url(#paint35_radial_36_2)"/>
<path d="M354.472 207.181C354.472 201.484 359.03 196.927 364.726 196.927C370.424 196.927 374.982 201.484 374.982 207.181C374.982 208.891 374.575 210.518 373.843 211.902H355.692C354.879 210.518 354.472 208.891 354.472 207.181Z" fill="black"/>
<g filter="url(#filter9_f_36_2)">
<path d="M363.408 193.061C364.684 194.768 362.018 196.848 358.986 199.114C355.955 201.381 353.706 202.976 352.43 201.271C351.154 199.564 352.578 196.343 355.61 194.077C358.641 191.81 362.134 191.355 363.408 193.061Z" fill="#C7A7A3"/>
<path d="M363.408 193.061C364.684 194.768 362.018 196.848 358.986 199.114C355.955 201.381 353.706 202.976 352.43 201.271C351.154 199.564 352.578 196.343 355.61 194.077C358.641 191.81 362.134 191.355 363.408 193.061Z" fill="url(#paint36_radial_36_2)"/>
</g>
<g filter="url(#filter10_f_36_2)">
<path d="M380.678 204.824C380.016 200.195 377.308 196.706 376.036 195.541L370.821 201.263L373.175 205.841L380.678 204.824Z" fill="url(#paint37_linear_36_2)"/>
</g>
<path d="M272.94 183.825C259.837 183.825 248.769 192.859 245.758 205.067C244.861 208.568 247.547 211.904 251.128 211.904H295.892C298.741 211.904 301.02 209.3 300.45 206.451C297.928 193.591 286.533 183.825 272.94 183.825Z" fill="white"/>
<path d="M277.091 189.276C267.162 189.276 259.186 197.334 259.186 207.181C259.186 208.811 259.43 210.438 259.836 211.902H294.427C294.835 210.355 295.077 208.811 295.077 207.181C294.997 197.334 287.02 189.276 277.091 189.276Z" fill="url(#paint38_radial_36_2)"/>
<path d="M287.345 207.181C287.345 201.486 282.789 196.927 277.091 196.927C271.393 196.927 266.835 201.486 266.835 207.181C266.835 208.891 267.242 210.52 267.975 211.902H286.125C286.858 210.52 287.345 208.891 287.345 207.181Z" fill="black"/>
<g filter="url(#filter11_f_36_2)">
<path d="M293.45 205.081C293.45 199.295 288.746 195.438 287.474 194.272L281.688 199.868L285.249 207.117L293.45 205.081Z" fill="url(#paint39_linear_36_2)"/>
</g>
<g filter="url(#filter12_f_36_2)">
<path d="M273.537 200.426C277.355 198.403 279.622 195.199 278.6 193.271C277.579 191.342 273.655 191.418 269.836 193.441C266.018 195.464 263.751 198.668 264.772 200.596C265.794 202.525 269.718 202.449 273.537 200.426Z" fill="#C7A7A3" fill-opacity="0.9"/>
<path d="M273.537 200.426C277.355 198.403 279.622 195.199 278.6 193.271C277.579 191.342 273.655 191.418 269.836 193.441C266.018 195.464 263.751 198.668 264.772 200.596C265.794 202.525 269.718 202.449 273.537 200.426Z" fill="url(#paint40_radial_36_2)"/>
</g>
<path d="M419.655 244.133C420.975 222.782 422.249 201.458 423.359 180.107C438.518 182.759 450.038 195.987 450.038 211.904C450.038 229.096 436.6 243.15 419.655 244.133Z" fill="url(#paint41_linear_36_2)"/>
<path d="M419.655 244.133C420.975 222.782 422.249 201.458 423.359 180.107C438.518 182.759 450.038 195.987 450.038 211.904C450.038 229.096 436.6 243.15 419.655 244.133Z" fill="url(#paint42_radial_36_2)"/>
<path d="M419.655 244.133C420.975 222.782 422.249 201.458 423.359 180.107C438.518 182.759 450.038 195.987 450.038 211.904C450.038 229.096 436.6 243.15 419.655 244.133Z" fill="url(#paint43_radial_36_2)"/>
<path d="M419.655 244.133C420.975 222.782 422.249 201.458 423.359 180.107C438.518 182.759 450.038 195.987 450.038 211.904C450.038 229.096 436.6 243.15 419.655 244.133Z" fill="url(#paint44_radial_36_2)"/>
<path d="M219.706 179.931C204.032 182.141 191.778 195.621 191.778 211.906C191.778 229.142 205.284 243.222 222.29 244.14C220.994 222.704 220.122 201.375 219.706 179.931Z" fill="url(#paint45_linear_36_2)"/>
<path d="M219.706 179.931C204.032 182.141 191.778 195.621 191.778 211.906C191.778 229.142 205.284 243.222 222.29 244.14C220.994 222.704 220.122 201.375 219.706 179.931Z" fill="url(#paint46_radial_36_2)"/>
<g filter="url(#filter13_f_36_2)">
<path d="M218.884 193.185C210.323 195.104 203.927 202.75 203.927 211.888C203.927 221.614 211.172 229.647 220.557 230.889C219.861 218.314 219.275 205.763 218.884 193.185Z" fill="url(#paint47_radial_36_2)"/>
</g>
<g filter="url(#filter14_f_36_2)">
<path d="M421.339 231.214C422.111 218.483 422.859 205.759 423.558 193.028C433.013 194.208 440.328 202.272 440.328 212.047C440.328 222.573 431.841 231.118 421.339 231.214Z" fill="url(#paint48_linear_36_2)"/>
</g>
<g filter="url(#filter15_f_36_2)">
<path d="M253.235 160.873C258.391 157.174 271.241 150.667 286.44 153.223" stroke="#353535" stroke-width="0.25" stroke-linecap="round"/>
</g>
<g filter="url(#filter16_f_36_2)">
<path d="M392.352 159.947C387.196 156.248 374.344 149.742 359.145 152.297" stroke="#353535" stroke-width="0.25" stroke-linecap="round"/>
</g>
<g filter="url(#filter17_i_36_2)">
<path d="M522.229 321.391H119.774C109.141 321.391 100.314 330.018 100.314 340.852V602.266H541.689V340.852C541.689 330.018 532.862 321.391 522.229 321.391Z" fill="url(#paint49_linear_36_2)"/>
<path d="M522.229 321.391H119.774C109.141 321.391 100.314 330.018 100.314 340.852V602.266H541.689V340.852C541.689 330.018 532.862 321.391 522.229 321.391Z" fill="url(#paint50_radial_36_2)"/>
<path d="M522.229 321.391H119.774C109.141 321.391 100.314 330.018 100.314 340.852V602.266H541.689V340.852C541.689 330.018 532.862 321.391 522.229 321.391Z" fill="url(#paint51_linear_36_2)"/>
<path d="M522.229 321.391H119.774C109.141 321.391 100.314 330.018 100.314 340.852V602.266H541.689V340.852C541.689 330.018 532.862 321.391 522.229 321.391Z" fill="url(#paint52_linear_36_2)"/>
<path d="M522.229 321.391H119.774C109.141 321.391 100.314 330.018 100.314 340.852V602.266H541.689V340.852C541.689 330.018 532.862 321.391 522.229 321.391Z" fill="url(#paint53_linear_36_2)"/>
<path d="M522.229 321.391H119.774C109.141 321.391 100.314 330.018 100.314 340.852V602.266H541.689V340.852C541.689 330.018 532.862 321.391 522.229 321.391Z" fill="url(#paint54_radial_36_2)"/>
</g>
<path d="M289.783 439.186C289.783 436.416 292.028 434.171 294.798 434.171H347.163C349.932 434.171 352.179 436.416 352.179 439.186V487.651C352.179 490.422 349.932 492.667 347.163 492.667H294.798C292.028 492.667 289.783 490.422 289.783 487.651V439.186Z" fill="url(#paint55_linear_36_2)"/>
<path d="M289.783 439.186C289.783 436.416 292.028 434.171 294.798 434.171H347.163C349.932 434.171 352.179 436.416 352.179 439.186V487.651C352.179 490.422 349.932 492.667 347.163 492.667H294.798C292.028 492.667 289.783 490.422 289.783 487.651V439.186Z" fill="url(#paint56_linear_36_2)"/>
<path d="M289.783 439.186C289.783 436.416 292.028 434.171 294.798 434.171H347.163C349.932 434.171 352.179 436.416 352.179 439.186V487.651C352.179 490.422 349.932 492.667 347.163 492.667H294.798C292.028 492.667 289.783 490.422 289.783 487.651V439.186Z" fill="url(#paint57_linear_36_2)"/>
<path d="M289.783 439.186C289.783 436.416 292.028 434.171 294.798 434.171H347.163C349.932 434.171 352.179 436.416 352.179 439.186V487.651C352.179 490.422 349.932 492.667 347.163 492.667H294.798C292.028 492.667 289.783 490.422 289.783 487.651V439.186Z" fill="url(#paint58_linear_36_2)"/>
<path d="M289.783 439.186C289.783 436.416 292.028 434.171 294.798 434.171H347.163C349.932 434.171 352.179 436.416 352.179 439.186V487.651C352.179 490.422 349.932 492.667 347.163 492.667H294.798C292.028 492.667 289.783 490.422 289.783 487.651V439.186Z" fill="url(#paint59_linear_36_2)"/>
<path d="M289.783 439.186C289.783 436.416 292.028 434.171 294.798 434.171H347.163C349.932 434.171 352.179 436.416 352.179 439.186V487.651C352.179 490.422 349.932 492.667 347.163 492.667H294.798C292.028 492.667 289.783 490.422 289.783 487.651V439.186Z" fill="url(#paint60_radial_36_2)" fill-opacity="0.6"/>
<defs>
<filter id="filter0_ii_36_2" x="219.329" y="93.4307" width="206.047" height="247.806" filterUnits="userSpaceOnUse" color-interpolation-filters="sRGB">
<feFlood flood-opacity="0" result="BackgroundImageFix"/>
<feBlend mode="normal" in="SourceGraphic" in2="BackgroundImageFix" result="shape"/>
<feColorMatrix in="SourceAlpha" type="matrix" values="0 0 0 0 0 0 0 0 0 0 0 0 0 0 0 0 0 0 127 0" result="hardAlpha"/>
<feOffset dx="1"/>
<feGaussianBlur stdDeviation="0.7"/>
<feComposite in2="hardAlpha" operator="arithmetic" k2="-1" k3="1"/>
<feColorMatrix type="matrix" values="0 0 0 0 0.913725 0 0 0 0 0.686275 0 0 0 0 0.592157 0 0 0 1 0"/>
<feBlend mode="normal" in2="shape" result="effect1_innerShadow_36_2"/>
<feColorMatrix in="SourceAlpha" type="matrix" values="0 0 0 0 0 0 0 0 0 0 0 0 0 0 0 0 0 0 127 0" result="hardAlpha"/>
<feOffset dy="0.2"/>
<feGaussianBlur stdDeviation="0.375"/>
<feComposite in2="hardAlpha" operator="arithmetic" k2="-1" k3="1"/>
<feColorMatrix type="matrix" values="0 0 0 0 0.780392 0 0 0 0 0.568627 0 0 0 0 0.486275 0 0 0 1 0"/>
<feBlend mode="normal" in2="effect1_innerShadow_36_2" result="effect2_innerShadow_36_2"/>
</filter>
<filter id="filter1_f_36_2" x="299.54" y="199.591" width="37.0435" height="60.1815" filterUnits="userSpaceOnUse" color-interpolation-filters="sRGB">
<feFlood flood-opacity="0" result="BackgroundImageFix"/>
<feBlend mode="normal" in="SourceGraphic" in2="BackgroundImageFix" result="shape"/>
<feGaussianBlur stdDeviation="0.5" result="effect1_foregroundBlur_36_2"/>
</filter>
<filter id="filter2_f_36_2" x="301.877" y="196.565" width="38.0633" height="58.5831" filterUnits="userSpaceOnUse" color-interpolation-filters="sRGB">
<feFlood flood-opacity="0" result="BackgroundImageFix"/>
<feBlend mode="normal" in="SourceGraphic" in2="BackgroundImageFix" result="shape"/>
<feGaussianBlur stdDeviation="0.1" result="effect1_foregroundBlur_36_2"/>
</filter>
<filter id="filter3_f_36_2" x="286.944" y="266.723" width="67.9256" height="24.8777" filterUnits="userSpaceOnUse" color-interpolation-filters="sRGB">
<feFlood flood-opacity="0" result="BackgroundImageFix"/>
<feBlend mode="normal" in="SourceGraphic" in2="BackgroundImageFix" result="shape"/>
<feGaussianBlur stdDeviation="0.05" result="effect1_foregroundBlur_36_2"/>
</filter>
<filter id="filter4_ii_36_2" x="191.778" y="39.2332" width="258.258" height="158.122" filterUnits="userSpaceOnUse" color-interpolation-filters="sRGB">
<feFlood flood-opacity="0" result="BackgroundImageFix"/>
<feBlend mode="normal" in="SourceGraphic" in2="BackgroundImageFix" result="shape"/>
<feColorMatrix in="SourceAlpha" type="matrix" values="0 0 0 0 0 0 0 0 0 0 0 0 0 0 0 0 0 0 127 0" result="hardAlpha"/>
<feOffset dy="-0.5"/>
<feGaussianBlur stdDeviation="0.625"/>
<feComposite in2="hardAlpha" operator="arithmetic" k2="-1" k3="1"/>
<feColorMatrix type="matrix" values="0 0 0 0 0.137255 0 0 0 0 0.0901961 0 0 0 0 0.145098 0 0 0 1 0"/>
<feBlend mode="normal" in2="shape" result="effect1_innerShadow_36_2"/>
<feColorMatrix in="SourceAlpha" type="matrix" values="0 0 0 0 0 0 0 0 0 0 0 0 0 0 0 0 0 0 127 0" result="hardAlpha"/>
<feOffset dy="-0.2"/>
<feGaussianBlur stdDeviation="0.2"/>
<feComposite in2="hardAlpha" operator="arithmetic" k2="-1" k3="1"/>
<feColorMatrix type="matrix" values="0 0 0 0 0.0784314 0 0 0 0 0.0352941 0 0 0 0 0.0470588 0 0 0 1 0"/>
<feBlend mode="normal" in2="effect1_innerShadow_36_2" result="effect2_innerShadow_36_2"/>
</filter>
<filter id="filter5_i_36_2" x="352.789" y="147.139" width="45.0175" height="20.0706" filterUnits="userSpaceOnUse" color-interpolation-filters="sRGB">
<feFlood flood-opacity="0" result="BackgroundImageFix"/>
<feBlend mode="normal" in="SourceGraphic" in2="BackgroundImageFix" result="shape"/>
<feColorMatrix in="SourceAlpha" type="matrix" values="0 0 0 0 0 0 0 0 0 0 0 0 0 0 0 0 0 0 127 0" result="hardAlpha"/>
<feOffset dx="0.1" dy="-0.2"/>
<feGaussianBlur stdDeviation="0.125"/>
<feComposite in2="hardAlpha" operator="arithmetic" k2="-1" k3="1"/>
<feColorMatrix type="matrix" values="0 0 0 0 0.0588235 0 0 0 0 0.054902 0 0 0 0 0.0588235 0 0 0 1 0"/>
<feBlend mode="normal" in2="shape" result="effect1_innerShadow_36_2"/>
</filter>
<filter id="filter6_i_36_2" x="247.339" y="147.433" width="45.017" height="19.7746" filterUnits="userSpaceOnUse" color-interpolation-filters="sRGB">
<feFlood flood-opacity="0" result="BackgroundImageFix"/>
<feBlend mode="normal" in="SourceGraphic" in2="BackgroundImageFix" result="shape"/>
<feColorMatrix in="SourceAlpha" type="matrix" values="0 0 0 0 0 0 0 0 0 0 0 0 0 0 0 0 0 0 127 0" result="hardAlpha"/>
<feOffset dx="0.1" dy="-0.2"/>
<feGaussianBlur stdDeviation="0.125"/>
<feComposite in2="hardAlpha" operator="arithmetic" k2="-1" k3="1"/>
<feColorMatrix type="matrix" values="0 0 0 0 0.0588235 0 0 0 0 0.054902 0 0 0 0 0.0588235 0 0 0 1 0"/>
<feBlend mode="normal" in2="shape" result="effect1_innerShadow_36_2"/>
</filter>
<filter id="filter7_if_36_2" x="203.677" y="56.3129" width="122.718" height="110.679" filterUnits="userSpaceOnUse" color-interpolation-filters="sRGB">
<feFlood flood-opacity="0" result="BackgroundImageFix"/>
<feBlend mode="normal" in="SourceGraphic" in2="BackgroundImageFix" result="shape"/>
<feColorMatrix in="SourceAlpha" type="matrix" values="0 0 0 0 0 0 0 0 0 0 0 0 0 0 0 0 0 0 127 0" result="hardAlpha"/>
<feOffset dx="0.4" dy="0.2"/>
<feGaussianBlur stdDeviation="0.2"/>
<feComposite in2="hardAlpha" operator="arithmetic" k2="-1" k3="1"/>
<feColorMatrix type="matrix" values="0 0 0 0 0.286275 0 0 0 0 0.243137 0 0 0 0 0.227451 0 0 0 1 0"/>
<feBlend mode="normal" in2="shape" result="effect1_innerShadow_36_2"/>
<feGaussianBlur stdDeviation="0.125" result="effect2_foregroundBlur_36_2"/>
</filter>
<filter id="filter8_f_36_2" x="322.486" y="64.8105" width="118.096" height="105.545" filterUnits="userSpaceOnUse" color-interpolation-filters="sRGB">
<feFlood flood-opacity="0" result="BackgroundImageFix"/>
<feBlend mode="normal" in="SourceGraphic" in2="BackgroundImageFix" result="shape"/>
<feGaussianBlur stdDeviation="0.125" result="effect1_foregroundBlur_36_2"/>
</filter>
<filter id="filter9_f_36_2" x="351.862" y="191.929" width="11.9727" height="10.1576" filterUnits="userSpaceOnUse" color-interpolation-filters="sRGB">
<feFlood flood-opacity="0" result="BackgroundImageFix"/>
<feBlend mode="normal" in="SourceGraphic" in2="BackgroundImageFix" result="shape"/>
<feGaussianBlur stdDeviation="0.05" result="effect1_foregroundBlur_36_2"/>
</filter>
<filter id="filter10_f_36_2" x="370.621" y="195.341" width="10.2567" height="10.7005" filterUnits="userSpaceOnUse" color-interpolation-filters="sRGB">
<feFlood flood-opacity="0" result="BackgroundImageFix"/>
<feBlend mode="normal" in="SourceGraphic" in2="BackgroundImageFix" result="shape"/>
<feGaussianBlur stdDeviation="0.1" result="effect1_foregroundBlur_36_2"/>
</filter>
<filter id="filter11_f_36_2" x="281.487" y="194.072" width="12.1627" height="13.245" filterUnits="userSpaceOnUse" color-interpolation-filters="sRGB">
<feFlood flood-opacity="0" result="BackgroundImageFix"/>
<feBlend mode="normal" in="SourceGraphic" in2="BackgroundImageFix" result="shape"/>
<feGaussianBlur stdDeviation="0.1" result="effect1_foregroundBlur_36_2"/>
</filter>
<filter id="filter12_f_36_2" x="264.427" y="191.772" width="14.5181" height="10.3222" filterUnits="userSpaceOnUse" color-interpolation-filters="sRGB">
<feFlood flood-opacity="0" result="BackgroundImageFix"/>
<feBlend mode="normal" in="SourceGraphic" in2="BackgroundImageFix" result="shape"/>
<feGaussianBlur stdDeviation="0.05" result="effect1_foregroundBlur_36_2"/>
</filter>
<filter id="filter13_f_36_2" x="203.677" y="192.935" width="17.1299" height="38.2045" filterUnits="userSpaceOnUse" color-interpolation-filters="sRGB">
<feFlood flood-opacity="0" result="BackgroundImageFix"/>
<feBlend mode="normal" in="SourceGraphic" in2="BackgroundImageFix" result="shape"/>
<feGaussianBlur stdDeviation="0.125" result="effect1_foregroundBlur_36_2"/>
</filter>
<filter id="filter14_f_36_2" x="420.839" y="192.528" width="19.989" height="39.1862" filterUnits="userSpaceOnUse" color-interpolation-filters="sRGB">
<feFlood flood-opacity="0" result="BackgroundImageFix"/>
<feBlend mode="normal" in="SourceGraphic" in2="BackgroundImageFix" result="shape"/>
<feGaussianBlur stdDeviation="0.25" result="effect1_foregroundBlur_36_2"/>
</filter>
<filter id="filter15_f_36_2" x="252.86" y="152.268" width="33.9556" height="8.97974" filterUnits="userSpaceOnUse" color-interpolation-filters="sRGB">
<feFlood flood-opacity="0" result="BackgroundImageFix"/>
<feBlend mode="normal" in="SourceGraphic" in2="BackgroundImageFix" result="shape"/>
<feGaussianBlur stdDeviation="0.125" result="effect1_foregroundBlur_36_2"/>
</filter>
<filter id="filter16_f_36_2" x="358.77" y="151.343" width="33.9575" height="8.97974" filterUnits="userSpaceOnUse" color-interpolation-filters="sRGB">
<feFlood flood-opacity="0" result="BackgroundImageFix"/>
<feBlend mode="normal" in="SourceGraphic" in2="BackgroundImageFix" result="shape"/>
<feGaussianBlur stdDeviation="0.125" result="effect1_foregroundBlur_36_2"/>
</filter>
<filter id="filter17_i_36_2" x="100.314" y="321.391" width="441.376" height="280.975" filterUnits="userSpaceOnUse" color-interpolation-filters="sRGB">
<feFlood flood-opacity="0" result="BackgroundImageFix"/>
<feBlend mode="normal" in="SourceGraphic" in2="BackgroundImageFix" result="shape"/>
<feColorMatrix in="SourceAlpha" type="matrix" values="0 0 0 0 0 0 0 0 0 0 0 0 0 0 0 0 0 0 127 0" result="hardAlpha"/>
<feOffset dy="0.1"/>
<feGaussianBlur stdDeviation="0.25"/>
<feComposite in2="hardAlpha" operator="arithmetic" k2="-1" k3="1"/>
<feColorMatrix type="matrix" values="0 0 0 0 0.678431 0 0 0 0 0.670588 0 0 0 0 0.682353 0 0 0 1 0"/>
<feBlend mode="normal" in2="shape" result="effect1_innerShadow_36_2"/>
</filter>
<radialGradient id="paint0_radial_36_2" cx="0" cy="0" r="1" gradientUnits="userSpaceOnUse" gradientTransform="translate(110.295 602.269) rotate(-156.777) scale(53.8959 58.5378)">
<stop stop-color="#DFA49E"/>
<stop offset="1" stop-color="#F4C0A9"/>
</radialGradient>
<radialGradient id="paint1_radial_36_2" cx="0" cy="0" r="1" gradientUnits="userSpaceOnUse" gradientTransform="translate(108.434 598.943) rotate(177.157) scale(67.2182 96.1092)">
<stop offset="0.764" stop-color="#FFD1B6" stop-opacity="0"/>
<stop offset="0.927" stop-color="#FFD1B6"/>
</radialGradient>
<radialGradient id="paint2_radial_36_2" cx="0" cy="0" r="1" gradientUnits="userSpaceOnUse" gradientTransform="translate(113.439 540.902) rotate(142.141) scale(46.0573 49.764)">
<stop stop-color="#D5A58F"/>
<stop offset="1" stop-color="#D5A58F" stop-opacity="0"/>
</radialGradient>
<radialGradient id="paint3_radial_36_2" cx="0" cy="0" r="1" gradientUnits="userSpaceOnUse" gradientTransform="translate(543.513 604.262) rotate(-33.3961) scale(135.545 37.8503)">
<stop offset="0.127" stop-color="#FFE6CB"/>
<stop offset="1" stop-color="#FFE6CB" stop-opacity="0"/>
</radialGradient>
<linearGradient id="paint4_linear_36_2" x1="533.803" y1="578.562" x2="547.746" y2="578.562" gradientUnits="userSpaceOnUse">
<stop stop-color="#F5C7AD"/>
<stop offset="1" stop-color="#F5C7AD" stop-opacity="0"/>
</linearGradient>
<linearGradient id="paint5_linear_36_2" x1="321" y1="134.479" x2="321" y2="694.383" gradientUnits="userSpaceOnUse">
<stop stop-color="#636363"/>
<stop offset="1" stop-color="#1C1C1C"/>
</linearGradient>
<linearGradient id="paint6_linear_36_2" x1="219.042" y1="481.56" x2="28.6493" y2="482.383" gradientUnits="userSpaceOnUse">
<stop stop-color="#1C1C1C"/>
<stop offset="1" stop-color="#636363"/>
</linearGradient>
<linearGradient id="paint7_linear_36_2" x1="461.397" y1="481.901" x2="574.831" y2="481.901" gradientUnits="userSpaceOnUse">
<stop stop-color="#1C1C1C"/>
<stop offset="1" stop-color="#636363"/>
</linearGradient>
<radialGradient id="paint8_radial_36_2" cx="0" cy="0" r="1" gradientUnits="userSpaceOnUse" gradientTransform="translate(416.287 236.117) rotate(69.657) scale(43.212 51.3327)">
<stop offset="0.215" stop-color="#313131"/>
<stop offset="1" stop-color="#1A161E"/>
</radialGradient>
<radialGradient id="paint9_radial_36_2" cx="0" cy="0" r="1" gradientUnits="userSpaceOnUse" gradientTransform="translate(199.401 245.966) rotate(17.4472) scale(31.05 95.7913)">
<stop stop-color="#564943"/>
<stop offset="0.746" stop-color="#1E191C"/>
</radialGradient>
<radialGradient id="paint10_radial_36_2" cx="0" cy="0" r="1" gradientUnits="userSpaceOnUse" gradientTransform="translate(377.235 217.237) rotate(180) scale(104.884 185.538)">
<stop stop-color="#FFDCC0"/>
<stop offset="1" stop-color="#D6A195"/>
</radialGradient>
<linearGradient id="paint11_linear_36_2" x1="424.382" y1="251.042" x2="337.05" y2="251.042" gradientUnits="userSpaceOnUse">
<stop stop-color="#FFD6BA"/>
<stop offset="1" stop-color="#FFD6BA" stop-opacity="0"/>
</linearGradient>
<radialGradient id="paint12_radial_36_2" cx="0" cy="0" r="1" gradientUnits="userSpaceOnUse" gradientTransform="translate(352.639 98.5871) rotate(94.4701) scale(256.938 212.775)">
<stop offset="0.719" stop-color="#F7BDB2" stop-opacity="0"/>
<stop offset="0.946" stop-color="#CA868F"/>
</radialGradient>
<radialGradient id="paint13_radial_36_2" cx="0" cy="0" r="1" gradientUnits="userSpaceOnUse" gradientTransform="translate(370.013 190.895) rotate(-90) scale(23.0388 28.5104)">
<stop offset="0.325" stop-color="#F6B8A8"/>
<stop offset="1" stop-color="#F6B8A8" stop-opacity="0"/>
</radialGradient>
<radialGradient id="paint14_radial_36_2" cx="0" cy="0" r="1" gradientTransform="matrix(0.0788456 -21.9538 23.891 0.0858675 274.756 191.818)" gradientUnits="userSpaceOnUse">
<stop offset="0.378" stop-color="#D39991"/>
<stop offset="1" stop-color="#D39991" stop-opacity="0"/>
</radialGradient>
<radialGradient id="paint15_radial_36_2" cx="0" cy="0" r="1" gradientTransform="matrix(-170.45 10.7595 -27.4856 -435.414 389.774 237.059)" gradientUnits="userSpaceOnUse">
<stop offset="0.836" stop-color="#E6AD97" stop-opacity="0"/>
<stop offset="1" stop-color="#E6AD97"/>
</radialGradient>
<radialGradient id="paint16_radial_36_2" cx="0" cy="0" r="1" gradientUnits="userSpaceOnUse" gradientTransform="translate(211.218 130.466) rotate(-46.6113) scale(90.4901 33.126)">
<stop offset="0.428" stop-color="#9F6D5C"/>
<stop offset="1" stop-color="#9F6D5C" stop-opacity="0"/>
</radialGradient>
<radialGradient id="paint17_radial_36_2" cx="0" cy="0" r="1" gradientTransform="matrix(-34.9722 57.8392 -47.7508 -28.8723 369.612 117.346)" gradientUnits="userSpaceOnUse">
<stop offset="0.078" stop-color="#F6C3B0"/>
<stop offset="1" stop-color="#F6C3B0" stop-opacity="0"/>
</radialGradient>
<linearGradient id="paint18_linear_36_2" x1="337.732" y1="230.759" x2="320.9" y2="231.461" gradientUnits="userSpaceOnUse">
<stop offset="0.36" stop-color="#FFDFC7"/>
<stop offset="1" stop-color="#FFDFC7" stop-opacity="0"/>
</linearGradient>
<radialGradient id="paint19_radial_36_2" cx="0" cy="0" r="1" gradientUnits="userSpaceOnUse" gradientTransform="translate(330.269 244.522) rotate(90) scale(4.89726 15.3915)">
<stop stop-color="#FFDDC7"/>
<stop offset="1" stop-color="#FFDDC7" stop-opacity="0"/>
</radialGradient>
<linearGradient id="paint20_linear_36_2" x1="320.9" y1="253.63" x2="320.9" y2="244.301" gradientUnits="userSpaceOnUse">
<stop stop-color="#D89793"/>
<stop offset="1" stop-color="#D89793" stop-opacity="0"/>
</linearGradient>
<radialGradient id="paint21_radial_36_2" cx="0" cy="0" r="1" gradientTransform="matrix(-30.5181 13.9922 -22.4866 -49.0448 332.596 233.106)" gradientUnits="userSpaceOnUse">
<stop offset="0.714" stop-color="#D3968C" stop-opacity="0"/>
<stop offset="1" stop-color="#D3968C"/>
</radialGradient>
<linearGradient id="paint22_linear_36_2" x1="320.9" y1="196.773" x2="320.9" y2="210.315" gradientUnits="userSpaceOnUse">
<stop stop-color="#E8BBA8"/>
<stop offset="1" stop-color="#E8BBA8" stop-opacity="0"/>
</linearGradient>
<linearGradient id="paint23_linear_36_2" x1="296.805" y1="285.148" x2="303.184" y2="268.396" gradientUnits="userSpaceOnUse">
<stop stop-color="#E1ACA6"/>
<stop offset="1" stop-color="#E1ACA6" stop-opacity="0"/>
</linearGradient>
<radialGradient id="paint24_radial_36_2" cx="0" cy="0" r="1" gradientUnits="userSpaceOnUse" gradientTransform="translate(320.9 288.238) rotate(-90) scale(14.4598 58.1752)">
<stop stop-color="#88014E"/>
<stop offset="1" stop-color="#86004D"/>
</radialGradient>
<linearGradient id="paint25_linear_36_2" x1="458.368" y1="103.623" x2="225.402" y2="103.623" gradientUnits="userSpaceOnUse">
<stop stop-color="#443D40"/>
<stop offset="1" stop-color="#272127"/>
</linearGradient>
<radialGradient id="paint26_radial_36_2" cx="0" cy="0" r="1" gradientUnits="userSpaceOnUse" gradientTransform="translate(215.993 159.196) rotate(-90) scale(70.2452 177.642)">
<stop offset="0.536" stop-color="#3E3433"/>
<stop offset="1" stop-color="#3E3433" stop-opacity="0"/>
</radialGradient>
<radialGradient id="paint27_radial_36_2" cx="0" cy="0" r="1" gradientUnits="userSpaceOnUse" gradientTransform="translate(418.449 185.488) rotate(-87.401) scale(50.4598 89.4047)">
<stop stop-color="#4F4D4D"/>
<stop offset="1" stop-color="#4F4D4D" stop-opacity="0"/>
</radialGradient>
<radialGradient id="paint28_radial_36_2" cx="0" cy="0" r="1" gradientTransform="matrix(-47.324 -31.125 22.8472 -34.7382 403.296 59.5856)" gradientUnits="userSpaceOnUse">
<stop stop-color="#5E5A5B"/>
<stop offset="1" stop-color="#5E5A5B" stop-opacity="0"/>
</radialGradient>
<radialGradient id="paint29_radial_36_2" cx="0" cy="0" r="1" gradientUnits="userSpaceOnUse" gradientTransform="translate(302.733 27.6142) rotate(58.465) scale(34.7194 80.3936)">
<stop offset="0.287" stop-color="#484646"/>
<stop offset="1" stop-color="#484646" stop-opacity="0"/>
</radialGradient>
<radialGradient id="paint30_radial_36_2" cx="0" cy="0" r="1" gradientUnits="userSpaceOnUse" gradientTransform="translate(325.996 72.9472) rotate(180) scale(44.16 16.3895)">
<stop stop-color="#423C3F"/>
<stop offset="1" stop-color="#423C3F" stop-opacity="0"/>
</radialGradient>
<radialGradient id="paint31_radial_36_2" cx="0" cy="0" r="1" gradientTransform="matrix(64.5643 -102.227 113.257 71.5308 211.96 152.054)" gradientUnits="userSpaceOnUse">
<stop offset="0.093" stop-color="#0B0306"/>
<stop offset="0.311" stop-color="#1C0C20"/>
<stop offset="1" stop-color="#1C0C20" stop-opacity="0"/>
</radialGradient>
<radialGradient id="paint32_radial_36_2" cx="0" cy="0" r="1" gradientUnits="userSpaceOnUse" gradientTransform="translate(389.413 88.5359) scale(61.3588 23.9901)">
<stop stop-color="#4E494B"/>
<stop offset="1" stop-color="#4E494B" stop-opacity="0"/>
</radialGradient>
<radialGradient id="paint33_radial_36_2" cx="0" cy="0" r="1" gradientUnits="userSpaceOnUse" gradientTransform="translate(373.764 149.466) rotate(-43.6141) scale(74.2289 135.894)">
<stop offset="0.857" stop-color="#545051" stop-opacity="0"/>
<stop offset="1" stop-color="#545051"/>
</radialGradient>
<radialGradient id="paint34_radial_36_2" cx="0" cy="0" r="1" gradientTransform="matrix(65.167 7.61693 -3.18914 27.2842 355.969 119.853)" gradientUnits="userSpaceOnUse">
<stop stop-color="#200E25"/>
<stop offset="1" stop-color="#200E25" stop-opacity="0"/>
</radialGradient>
<radialGradient id="paint35_radial_36_2" cx="0" cy="0" r="1" gradientUnits="userSpaceOnUse" gradientTransform="translate(364.676 198.839) rotate(90) scale(16.2771 25.8905)">
<stop offset="0.802" stop-color="#7D574A"/>
<stop offset="1" stop-color="#664842"/>
</radialGradient>
<radialGradient id="paint36_radial_36_2" cx="0" cy="0" r="1" gradientUnits="userSpaceOnUse" gradientTransform="translate(360.1 200.52) rotate(-127.812) scale(7.58944 10.4487)">
<stop offset="0.766" stop-color="#FFE6E2" stop-opacity="0"/>
<stop offset="0.966" stop-color="#FFE6E2"/>
</radialGradient>
<linearGradient id="paint37_linear_36_2" x1="380.305" y1="199.923" x2="374.005" y2="203.815" gradientUnits="userSpaceOnUse">
<stop stop-color="#B4948D"/>
<stop offset="1" stop-color="#B4948D" stop-opacity="0"/>
</linearGradient>
<radialGradient id="paint38_radial_36_2" cx="0" cy="0" r="1" gradientUnits="userSpaceOnUse" gradientTransform="translate(277.123 198.839) rotate(90) scale(16.2779 25.8919)">
<stop offset="0.802" stop-color="#7D574A"/>
<stop offset="1" stop-color="#664842"/>
</radialGradient>
<linearGradient id="paint39_linear_36_2" x1="292.05" y1="199.923" x2="285.75" y2="203.815" gradientUnits="userSpaceOnUse">
<stop stop-color="#B4948D"/>
<stop offset="1" stop-color="#B4948D" stop-opacity="0"/>
</linearGradient>
<radialGradient id="paint40_radial_36_2" cx="0" cy="0" r="1" gradientUnits="userSpaceOnUse" gradientTransform="translate(274.371 202.654) rotate(-118.811) scale(9.91366 11.9169)">
<stop offset="0.766" stop-color="#FFE6E2" stop-opacity="0"/>
<stop offset="0.966" stop-color="#FFE6E2"/>
</radialGradient>
<linearGradient id="paint41_linear_36_2" x1="450.042" y1="200.465" x2="425.827" y2="244.141" gradientUnits="userSpaceOnUse">
<stop stop-color="#FFD6BD"/>
<stop offset="1" stop-color="#F0B8A6"/>
</linearGradient>
<radialGradient id="paint42_radial_36_2" cx="0" cy="0" r="1" gradientTransform="matrix(12.6103 45.0056 -42.9388 12.0311 413.548 199.12)" gradientUnits="userSpaceOnUse">
<stop offset="0.856" stop-color="#CE978E" stop-opacity="0"/>
<stop offset="1" stop-color="#CE978E"/>
</radialGradient>
<radialGradient id="paint43_radial_36_2" cx="0" cy="0" r="1" gradientUnits="userSpaceOnUse" gradientTransform="translate(420.791 210.054) rotate(-53.9198) scale(26.8371 22.4949)">
<stop offset="0.664" stop-color="#F7B99C"/>
<stop offset="1" stop-color="#F7B99C" stop-opacity="0"/>
</radialGradient>
<radialGradient id="paint44_radial_36_2" cx="0" cy="0" r="1" gradientTransform="matrix(11.7767 -31.1053 41.5611 15.735 423.078 213.525)" gradientUnits="userSpaceOnUse">
<stop offset="0.803" stop-color="#EBBB9D" stop-opacity="0"/>
<stop offset="1" stop-color="#EBBB9D"/>
</radialGradient>
<linearGradient id="paint45_linear_36_2" x1="203.554" y1="214.588" x2="232.805" y2="212.04" gradientUnits="userSpaceOnUse">
<stop stop-color="#D19787"/>
<stop offset="1" stop-color="#C9887D"/>
</linearGradient>
<radialGradient id="paint46_radial_36_2" cx="0" cy="0" r="1" gradientUnits="userSpaceOnUse" gradientTransform="translate(222.308 212.029) rotate(-173.034) scale(32.6048 34.9996)">
<stop offset="0.775" stop-color="#E8AF99" stop-opacity="0"/>
<stop offset="1" stop-color="#E8AF99"/>
</radialGradient>
<radialGradient id="paint47_radial_36_2" cx="0" cy="0" r="1" gradientUnits="userSpaceOnUse" gradientTransform="translate(222.301 212.019) rotate(170.26) scale(18.6557 22.8915)">
<stop stop-color="#C18472"/>
<stop offset="1" stop-color="#CA8B7A"/>
</radialGradient>
<linearGradient id="paint48_linear_36_2" x1="430.822" y1="193.021" x2="430.822" y2="231.22" gradientUnits="userSpaceOnUse">
<stop stop-color="#F9BB9E"/>
<stop offset="1" stop-color="#F6BBA0"/>
</linearGradient>
<linearGradient id="paint49_linear_36_2" x1="150.328" y1="396.315" x2="226.385" y2="618.025" gradientUnits="userSpaceOnUse">
<stop stop-color="#AB9CBE"/>
<stop offset="1" stop-color="#847498"/>
</linearGradient>
<radialGradient id="paint50_radial_36_2" cx="0" cy="0" r="1" gradientUnits="userSpaceOnUse" gradientTransform="translate(345.938 623.282) rotate(-90) scale(152.416 266.374)">
<stop offset="0.027" stop-color="#78698C"/>
<stop offset="1" stop-color="#7A6B8E" stop-opacity="0"/>
</radialGradient>
<linearGradient id="paint51_linear_36_2" x1="321" y1="321.401" x2="321" y2="348.666" gradientUnits="userSpaceOnUse">
<stop stop-color="#BEB0B0"/>
<stop offset="0.268" stop-color="#BEB7C7"/>
<stop offset="0.863" stop-color="#BEB7C7" stop-opacity="0"/>
</linearGradient>
<linearGradient id="paint52_linear_36_2" x1="100.313" y1="486.596" x2="121.478" y2="486.596" gradientUnits="userSpaceOnUse">
<stop stop-color="#9F93B2"/>
<stop offset="1" stop-color="#9F93B2" stop-opacity="0"/>
</linearGradient>
<linearGradient id="paint53_linear_36_2" x1="541.687" y1="505.415" x2="512.075" y2="505.415" gradientUnits="userSpaceOnUse">
<stop offset="0.174" stop-color="#BAB9C0"/>
<stop offset="1" stop-color="#A191B5" stop-opacity="0"/>
</linearGradient>
<radialGradient id="paint54_radial_36_2" cx="0" cy="0" r="1" gradientTransform="matrix(-15.6738 8.77734 -8.13936 -14.5345 535.588 334.241)" gradientUnits="userSpaceOnUse">
<stop stop-color="#E5DFF1"/>
<stop offset="0.724" stop-color="#E5DFF1" stop-opacity="0"/>
</radialGradient>
<linearGradient id="paint55_linear_36_2" x1="360.664" y1="463.424" x2="279.089" y2="463.424" gradientUnits="userSpaceOnUse">
<stop offset="0.096" stop-color="#56416B"/>
<stop offset="0.13" stop-color="#614C77"/>
<stop offset="0.165" stop-color="#51366C"/>
<stop offset="1" stop-color="#4F3568"/>
</linearGradient>
<linearGradient id="paint56_linear_36_2" x1="320.98" y1="434.173" x2="320.98" y2="465.37" gradientUnits="userSpaceOnUse">
<stop stop-color="#60407F"/>
<stop offset="1" stop-color="#543870" stop-opacity="0"/>
</linearGradient>
<linearGradient id="paint57_linear_36_2" x1="320.98" y1="434.173" x2="320.98" y2="492.675" gradientUnits="userSpaceOnUse">
<stop stop-color="#594170"/>
<stop offset="0.037" stop-color="#6D5686"/>
<stop offset="0.058" stop-color="#6F5783"/>
<stop offset="0.097" stop-color="#5F447B" stop-opacity="0"/>
</linearGradient>
<linearGradient id="paint58_linear_36_2" x1="289.783" y1="463.885" x2="301.339" y2="463.885" gradientUnits="userSpaceOnUse">
<stop offset="0.086" stop-color="#3B2B50"/>
<stop offset="0.663" stop-color="#52376C" stop-opacity="0"/>
</linearGradient>
<linearGradient id="paint59_linear_36_2" x1="320.98" y1="498.393" x2="320.98" y2="484.87" gradientUnits="userSpaceOnUse">
<stop offset="0.507" stop-color="#3D2555"/>
<stop offset="0.736" stop-color="#4A3261" stop-opacity="0"/>
</linearGradient>
<radialGradient id="paint60_radial_36_2" cx="0" cy="0" r="1" gradientTransform="matrix(-1.91998 1.60661 -2.39526 -2.86272 348.506 437.844)" gradientUnits="userSpaceOnUse">
<stop stop-color="#806B97"/>
<stop offset="1" stop-color="#8D78A4" stop-opacity="0"/>
</radialGradient>
</defs>
</svg>
