<svg width="61" height="61" viewBox="0 0 61 61" fill="none" xmlns="http://www.w3.org/2000/svg">
<path d="M46.7708 0.4375H14.8958C7.12925 0.4375 0.833252 6.7335 0.833252 14.5V46.375C0.833252 54.1415 7.12925 60.4375 14.8958 60.4375H46.7708C54.5373 60.4375 60.8333 54.1415 60.8333 46.375V14.5C60.8333 6.7335 54.5373 0.4375 46.7708 0.4375Z" fill="#F4F2ED"/>
<path d="M28.9296 7.73034C30.0825 7.07058 31.5839 7.06753 32.7356 7.73034C38.5298 11.0046 44.3259 14.2734 50.1192 17.5495C51.209 18.1633 51.9377 19.376 51.9267 20.6315V40.3296C51.9349 41.6371 51.134 42.8789 49.9844 43.4786C44.2092 46.7348 38.4368 49.9947 32.6625 53.2509C31.4861 53.9235 29.9545 53.8717 28.8145 53.1438C27.0832 52.1402 25.3488 51.1413 23.6172 50.1386C23.2633 49.9277 22.8644 49.7599 22.6146 49.4167C22.8356 49.1191 23.2305 49.0821 23.5514 48.952C24.2739 48.7221 24.9379 48.3532 25.6017 47.9953C25.7697 47.8804 25.9746 47.9245 26.1356 48.0271C27.6161 48.876 29.0838 49.7498 30.5693 50.5905C30.8861 50.7735 31.207 50.5305 31.4779 50.3796C37.1451 47.1764 42.8193 43.9856 48.4858 40.7814C48.6958 40.6804 48.8118 40.4575 48.7947 40.2276C48.7987 33.7296 48.7957 27.2306 48.7968 20.7323C48.8207 20.4717 48.6698 20.2317 48.4338 20.1248C42.6787 16.8836 36.9262 13.6378 31.1721 10.3959C31.0724 10.3274 30.9543 10.2906 30.8333 10.2904C30.7124 10.2902 30.5942 10.3266 30.4943 10.3947C24.7399 13.6378 18.9888 16.8869 13.2344 20.1276C12.9993 20.2347 12.8416 20.4707 12.8695 20.7323C12.8707 27.2306 12.8695 33.7296 12.8695 40.2285C12.8594 40.3408 12.8841 40.4535 12.9401 40.5513C12.9961 40.6491 13.0807 40.7274 13.1826 40.7756C14.718 41.6463 16.2555 42.5109 17.7921 43.3788C18.6579 43.8445 19.7205 44.1215 20.6744 43.7646C21.5158 43.4627 22.1057 42.6037 22.0898 41.7103C22.0978 35.2502 22.0858 28.7892 22.0957 22.3298C22.0746 22.0432 22.3467 21.8062 22.6256 21.8334C23.3634 21.8282 24.1021 21.8233 24.84 21.8353C25.1479 21.8282 25.3598 22.1371 25.3218 22.4259C25.3188 28.927 25.3298 35.4281 25.3169 41.9289C25.3188 43.6617 24.607 45.547 23.0043 46.3947C21.0302 47.4173 18.5899 47.2005 16.6394 46.2199C14.951 45.3771 13.3394 44.3824 11.681 43.4796C10.5283 42.8831 9.73144 41.6364 9.73965 40.3298V20.6315C9.72746 19.35 10.4854 18.1153 11.6088 17.5103C17.3831 14.2518 23.1564 10.9905 28.9296 7.73034Z" fill="#81CD39"/>
<path d="M33.9673 21.3753C36.4856 21.2131 39.1816 21.2792 41.4478 22.52C43.2026 23.4706 44.1752 25.4661 44.2062 27.4154C44.1572 27.6781 43.8823 27.8232 43.6312 27.8051C42.9007 27.8042 42.1697 27.8152 41.4391 27.8002C41.1291 27.8122 40.9491 27.5265 40.9102 27.2525C40.7002 26.3197 40.1913 25.396 39.3136 24.946C37.9659 24.2715 36.4036 24.3054 34.9338 24.3195C33.8613 24.3762 32.7077 24.4693 31.7988 25.1C31.1011 25.5779 30.8892 26.5426 31.1381 27.3195C31.373 27.8773 32.0168 28.0573 32.5437 28.2233C35.5788 29.0171 38.7949 28.9379 41.7717 29.9825C43.0045 30.4083 44.2102 31.2364 44.632 32.5268C45.184 34.2565 44.9421 36.3237 43.7114 37.7122C42.7134 38.8547 41.2601 39.4768 39.8105 39.8145C37.882 40.2446 35.8807 40.2556 33.9223 40.0646C32.0808 39.8546 30.1643 39.3708 28.7428 38.1162C27.5271 37.0606 26.9334 35.4158 26.9923 33.8286C27.0063 33.5604 27.2733 33.3734 27.5302 33.3954C28.2659 33.3896 29.0018 33.3875 29.7375 33.3966C30.0314 33.3755 30.2494 33.6296 30.2644 33.9066C30.4001 34.7951 30.7341 35.7279 31.5089 36.2546C33.0044 37.2195 34.8811 37.1534 36.5934 37.1804C38.0119 37.1176 39.6044 37.0986 40.7623 36.1608C41.373 35.626 41.554 34.7311 41.389 33.9615C41.2101 33.3115 40.5302 33.0087 39.9464 32.8107C36.9504 31.8631 33.6982 32.2069 30.7312 31.1351C29.5266 30.7095 28.3617 29.9047 27.8991 28.6672C27.2534 26.9157 27.5491 24.7491 28.9087 23.4078C30.2344 22.073 32.1478 21.559 33.9673 21.3753Z" fill="#81CD39"/>
</svg>
