<svg width="61" height="60" viewBox="0 0 61 60" fill="none" xmlns="http://www.w3.org/2000/svg">
<g clip-path="url(#clip0_2033_1151)">
<path d="M46.7375 0H14.8625C7.09604 0 0.800049 6.296 0.800049 14.0625V45.9375C0.800049 53.704 7.09604 60 14.8625 60H46.7375C54.5041 60 60.8 53.704 60.8 45.9375V14.0625C60.8 6.296 54.5041 0 46.7375 0Z" fill="#023430"/>
<path d="M40.9187 25.2166C38.4491 14.3227 33.3022 11.4225 31.9892 9.37242C31.4475 8.46944 30.9679 7.53063 30.5537 6.5625C30.4843 7.53047 30.3568 8.13984 29.5342 8.87391C27.8825 10.3465 20.8677 16.0629 20.2773 28.4409C19.7272 39.982 28.7617 47.0984 29.9551 47.8341C30.8729 48.2857 31.9906 47.8437 32.536 47.4291C36.891 44.4403 42.8413 36.472 40.9234 25.2166" fill="#10AA50"/>
<path d="M30.9277 41.6885C30.7004 44.545 30.5375 46.2049 29.96 47.8373C29.96 47.8373 30.3389 50.5568 30.6052 53.4375H31.5471C31.7721 51.4089 32.1152 49.3952 32.5746 47.4065C31.3552 46.8065 30.9746 44.1951 30.9277 41.6885Z" fill="#B8C4C2"/>
<path d="M32.5731 47.4082C31.3407 46.8389 30.9842 44.1724 30.9294 41.6885C31.234 37.5909 31.3229 33.4801 31.1957 29.3732C31.131 27.2184 31.2261 9.41434 30.6648 6.80762C31.0486 7.6906 31.491 8.54689 31.9892 9.37074C33.3022 11.4225 38.4507 14.3226 40.9187 25.2166C42.8413 36.4528 36.9233 44.4 32.5731 47.4082Z" fill="#12924F"/>
</g>
<defs>
<clipPath id="clip0_2033_1151">
<rect width="60" height="60" fill="white" transform="translate(0.800049)"/>
</clipPath>
</defs>
</svg>
