<svg width="61" height="63" viewBox="0 0 61 63" fill="none" xmlns="http://www.w3.org/2000/svg">
<path d="M39.1253 0.14291L4.43831 2.71228C1.64058 2.95558 0.666748 4.78939 0.666748 6.98781V45.1275C0.666748 46.8398 1.27261 48.3048 2.73534 50.2622L10.889 60.8963C12.2285 62.6086 13.4465 62.9753 16.0042 62.8538L56.2849 60.4081C59.6908 60.1647 60.6667 58.5742 60.6667 55.8852V12.9777C60.6667 11.5882 60.1192 11.1879 58.5082 10.0017L58.2304 9.80048L47.1597 1.97673C44.4808 0.0234921 43.3863 -0.223806 39.1253 0.14291ZM16.9153 12.2756C13.6263 12.4977 12.8803 12.548 11.0123 11.0243L6.26269 7.23511C5.77987 6.74475 6.02222 6.13261 7.23839 6.01108L40.5839 3.56748C43.3839 3.32229 44.8424 4.30091 45.9375 5.15611L51.6564 9.31223C51.9009 9.43565 52.5091 10.1672 51.7776 10.1672L17.3416 12.2462L16.9153 12.2756ZM13.0809 55.5185V19.0932C13.0809 17.5025 13.5677 16.769 15.0262 16.6454L54.5777 14.3231C55.9193 14.2015 56.5253 15.0565 56.5253 16.6454V52.8274C56.5253 54.4181 56.2807 55.7634 54.0909 55.8852L16.2424 58.0858C14.0526 58.2073 13.0809 57.476 13.0809 55.5185ZM50.4426 21.0462C50.685 22.1466 50.4426 23.247 49.3455 23.3727L47.5214 23.7352V50.6287C45.9375 51.4837 44.4789 51.9722 43.2604 51.9722C41.3132 51.9722 40.8262 51.36 39.3677 49.5283L27.4385 30.7038V48.9164L31.2119 49.7735C31.2119 49.7735 31.2119 51.9743 28.1676 51.9743L19.7737 52.4625C19.5292 51.9722 19.7737 50.7502 20.6245 50.5072L22.8161 49.8972V25.8166L19.7739 25.5693C19.5292 24.4691 20.1372 22.8803 21.8425 22.7566L30.8486 22.149L43.2607 41.2166V24.3476L40.0971 23.9828C39.8526 22.6351 40.8262 21.6565 42.0424 21.5371L50.4426 21.0462Z" fill="black"/>
</svg>
