<svg width="255" height="255" viewBox="0 0 255 255" fill="none" xmlns="http://www.w3.org/2000/svg">
<path d="M218.471 108.247C221.128 100.937 221.797 93.6275 221.128 86.3281C220.469 79.0287 217.813 71.7187 214.487 65.0781C208.516 55.1225 199.878 47.1537 189.922 42.5C179.297 37.8568 168.003 36.5287 156.719 39.185C151.406 33.8725 145.424 29.2187 138.784 25.9037C132.143 22.5887 124.174 21.25 116.875 21.25C105.473 21.1834 94.3332 24.6665 85 31.2162C75.7032 37.8462 69.0625 47.1537 65.7369 57.7787C57.7681 59.7656 51.1275 63.0912 44.4869 67.0756C38.5156 71.7187 33.8619 77.7006 29.8775 83.6718C23.9063 93.6381 21.9088 104.922 23.2369 116.216C24.5726 127.477 29.1914 138.097 36.5182 146.752C34.0083 153.769 33.1007 161.259 33.8619 168.672C34.5313 175.982 37.1875 183.281 40.5025 189.922C46.4844 199.888 55.1119 207.857 65.0782 212.5C75.7032 217.154 86.9869 218.482 98.2813 215.826C103.594 221.138 109.565 225.781 116.206 229.107C122.846 232.432 130.815 233.75 138.125 233.75C149.526 233.82 160.666 230.34 170 223.794C179.297 217.154 185.938 207.857 189.253 197.232C196.755 195.807 203.813 192.62 209.844 187.935C215.815 183.281 221.128 177.969 224.453 171.328C230.424 161.372 232.422 150.078 231.094 138.794C229.766 127.5 225.781 116.886 218.471 108.247ZM138.784 219.799C128.159 219.799 120.19 216.474 112.891 210.502C112.891 210.502 113.549 209.833 114.219 209.833L156.719 185.268C157.898 184.736 158.843 183.791 159.375 182.612C159.907 181.589 160.135 180.435 160.034 179.286V119.531L177.969 130.156V179.297C178.152 184.554 177.273 189.795 175.385 194.706C173.498 199.616 170.64 204.096 166.982 207.877C163.325 211.659 158.943 214.664 154.098 216.714C149.253 218.765 144.045 219.807 138.784 219.799ZM53.125 183.281C48.4713 175.312 46.4844 166.016 48.4713 156.719C48.4713 156.719 49.1406 157.388 49.7994 157.388L92.2994 181.953C93.3195 182.494 94.475 182.727 95.625 182.622C96.9532 182.622 98.2813 182.622 98.94 181.953L150.737 152.076V172.656L107.578 197.891C103.104 200.489 98.1602 202.178 93.0313 202.862C87.9024 203.546 82.689 203.21 77.69 201.875C67.065 199.219 58.4375 192.578 53.125 183.281ZM41.8307 90.9818C46.5198 83.0403 53.7865 76.9436 62.4219 73.7056V124.185C62.4219 125.502 62.4219 126.841 63.0806 127.5C63.613 128.679 64.5575 129.624 65.7369 130.156L117.534 160.044L99.6094 170.669L57.1094 146.094C52.5834 143.536 48.6096 140.106 45.418 136.003C42.2264 131.899 39.8803 127.204 38.5157 122.187C35.8594 112.232 36.5182 100.279 41.8307 90.9818ZM188.594 124.844L136.797 94.9662L154.721 84.3412L197.221 108.906C203.862 112.891 209.174 118.203 212.5 124.844C215.826 131.484 217.813 138.794 217.143 146.763C216.507 154.243 213.741 161.385 209.174 167.344C204.531 173.326 198.549 177.969 191.25 180.625V130.156C191.25 128.828 191.25 127.5 190.581 126.841C190.581 126.841 189.922 125.502 188.594 124.844ZM206.518 98.2812C206.518 98.2812 205.859 97.6225 205.19 97.6225L162.69 73.0468C161.362 72.3881 160.703 72.3881 159.375 72.3881C158.047 72.3881 156.719 72.3881 156.049 73.0468L104.253 102.935V82.3437L147.422 57.1093C154.063 53.125 161.362 51.7968 169.331 51.7968C176.641 51.7968 183.94 54.4531 190.581 59.1068C196.563 63.75 201.875 69.7318 204.531 76.3725C207.188 83.0131 207.846 90.9818 206.518 98.2812ZM94.9557 135.469L77.0313 124.844V75.0443C77.0313 67.7343 79.0181 59.7656 83.0025 53.7943C86.9869 47.1537 92.9688 42.5 99.6094 39.185C106.377 35.7876 114.047 34.6233 121.518 35.8593C128.828 36.5287 136.128 39.8437 142.109 44.4975C142.109 44.4975 141.44 45.1562 140.781 45.1562L98.2813 69.7318C97.1019 70.2642 96.1574 71.2087 95.625 72.3881C94.9557 73.7162 94.9557 74.375 94.9557 75.7031V135.469ZM104.253 114.219L127.5 100.937L150.737 114.219V140.781L127.5 154.062L104.253 140.781V114.219Z" fill="black"/>
</svg>
