<svg width="255" height="255" viewBox="0 0 255 255" fill="none" xmlns="http://www.w3.org/2000/svg">
<g clip-path="url(#clip0_9_2)">
<path d="M195.234 0H59.7656C26.758 0 0 26.758 0 59.7656V195.234C0 228.242 26.758 255 59.7656 255H195.234C228.242 255 255 228.242 255 195.234V59.7656C255 26.758 228.242 0 195.234 0Z" fill="#242938"/>
<path d="M202.685 148.107C182.445 152.281 180.974 145.425 180.974 145.425C202.356 113.697 211.3 73.4251 203.582 63.5707C182.543 36.6762 146.116 49.4023 145.506 49.732L145.31 49.7668C140.861 48.8739 136.338 48.4024 131.8 48.3584C122.639 48.2189 115.691 50.7609 110.411 54.7603C110.411 54.7603 45.4298 27.9922 48.455 88.4282C49.0995 101.287 66.8757 185.78 88.0965 160.217C95.9129 150.818 103.406 142.924 103.406 142.924C107.119 145.396 111.58 146.657 116.252 146.202L116.616 145.894C116.509 147.104 116.558 148.324 116.763 149.522C111.301 155.629 112.911 156.7 101.985 158.949C90.9334 161.225 97.4329 165.28 101.663 166.345C106.804 167.634 118.697 169.454 126.737 158.207L126.414 159.488C128.558 161.204 130.056 170.645 129.804 179.203C129.552 187.763 129.384 193.632 131.065 198.226C132.746 202.82 134.427 213.144 148.785 210.132C160.782 207.562 166.994 200.887 167.87 189.78C168.486 181.879 169.873 183.041 169.971 175.982L171.092 172.634C172.373 161.918 171.301 158.466 178.69 160.076L180.49 160.238C185.933 160.483 193.056 159.362 197.23 157.422C206.229 153.248 211.566 146.271 202.692 148.107H202.685Z" fill="#336791"/>
<path d="M145.499 48.4062C143.258 49.1064 181.668 34.3643 203.505 62.2599C211.21 72.1142 202.28 112.386 180.897 144.113M127.598 153.183C127.038 173.116 127.738 193.188 129.685 198.008C131.632 202.826 135.813 212.365 150.178 209.297C162.176 206.727 166.546 201.747 168.437 190.758L172.87 155.621L127.598 153.183ZM110.383 53.2602C110.383 53.2602 45.3591 26.6744 48.3853 87.1084C49.0297 99.967 66.805 184.461 88.0268 158.897C95.7724 149.561 102.777 142.256 102.777 142.256L110.383 53.2602Z" stroke="white" stroke-width="0.314625" stroke-linecap="round" stroke-linejoin="round"/>
<path d="M180.904 144.099C180.904 144.099 182.305 150.963 202.615 146.774C211.49 144.94 206.146 151.915 197.153 156.09C189.771 159.521 173.214 160.397 172.941 155.67C172.241 143.447 181.654 147.16 180.974 144.099C180.358 141.34 176.141 138.636 173.368 131.885C170.938 126.001 140.03 80.827 181.941 87.5287C183.481 87.214 171.014 47.6083 131.793 47.0335C92.572 46.4588 93.8121 95.2544 93.8121 95.2544" stroke="white" stroke-width="0.314625" stroke-linecap="round" stroke-linejoin="bevel"/>
<path d="M116.623 148.287C111.16 154.395 112.771 155.466 101.846 157.715C90.7929 159.991 97.2934 164.046 101.523 165.111C106.664 166.399 118.556 168.22 126.597 156.964C129.048 153.533 126.583 148.07 123.221 146.684C121.596 146.011 119.425 145.171 116.638 148.294L116.623 148.287Z" stroke="white" stroke-width="0.314625" stroke-linejoin="round"/>
<path d="M116.266 148.182C115.705 144.589 117.442 140.324 119.298 135.323C122.086 127.83 128.516 120.335 123.375 96.5434C119.544 78.8229 93.8191 92.8519 93.8191 95.2544C93.8191 97.657 94.9815 107.442 93.3987 118.822C91.3189 133.685 102.854 146.249 116.133 144.967" stroke="white" stroke-width="0.314625" stroke-linecap="round" stroke-linejoin="round"/>
<path d="M110.145 94.8978C110.026 95.7166 111.65 97.909 113.759 98.2029C115.867 98.4977 117.667 96.7884 117.786 95.9617C117.905 95.1349 116.28 94.2384 114.172 93.9446C112.065 93.6507 110.25 94.085 110.145 94.8978Z" fill="white" stroke="white" stroke-width="0.105"/>
<path d="M174.327 93.2244C174.439 94.0432 172.821 96.2346 170.714 96.5295C168.605 96.8233 166.791 95.115 166.686 94.2883C166.581 93.4615 168.192 92.565 170.3 92.2712C172.408 91.9773 174.222 92.4116 174.327 93.2244Z" fill="white" stroke="white" stroke-width="0.0523125"/>
<path d="M181.864 87.5437C182.213 93.9874 180.476 98.3643 180.252 105.221C179.93 115.18 185.002 126.583 177.359 137.999" stroke="white" stroke-width="0.314625" stroke-linecap="round" stroke-linejoin="round"/>
</g>
<defs>
<clipPath id="clip0_9_2">
<rect width="255" height="255" fill="white"/>
</clipPath>
</defs>
</svg>
