<svg width="255" height="255" viewBox="0 0 255 255" fill="none" xmlns="http://www.w3.org/2000/svg">
<g clip-path="url(#clip0_10_28)">
<path d="M195.234 0H59.7656C26.758 0 0 26.758 0 59.7656V195.234C0 228.242 26.758 255 59.7656 255H195.234C228.242 255 255 228.242 255 195.234V59.7656C255 26.758 228.242 0 195.234 0Z" fill="#677EEB"/>
<path fill-rule="evenodd" clip-rule="evenodd" d="M52.4523 164.538C51.5168 163.061 51.014 161.351 51.0008 159.603C50.9876 157.855 51.4645 156.138 52.3776 154.648L122.564 40.1625C126.468 33.7945 135.894 34.3513 139.021 41.1337L203.138 180.219C205.517 185.38 202.779 191.452 197.335 193.086L97.5963 223.007C95.6434 223.593 93.5525 223.525 91.6423 222.812C89.7321 222.099 88.1074 220.781 87.0158 219.059L52.4523 164.538ZM130.661 73.6372C131.337 70.2685 135.952 69.7824 137.315 72.937L181.542 175.276C181.739 175.73 181.837 176.221 181.83 176.716C181.823 177.211 181.711 177.699 181.502 178.148C181.292 178.597 180.99 178.996 180.615 179.32C180.24 179.643 179.801 179.884 179.327 180.025L110.415 200.596C107.882 201.352 105.455 199.139 105.976 196.547L130.661 73.6372Z" fill="#F7FAFC"/>
</g>
<defs>
<clipPath id="clip0_10_28">
<rect width="255" height="255" fill="white"/>
</clipPath>
</defs>
</svg>
