<svg width="60" height="54" viewBox="0 0 60 54" fill="none" xmlns="http://www.w3.org/2000/svg">
<path d="M49.332 17.6881C48.6934 17.4709 48.0494 17.2696 47.4007 17.0845C47.5097 16.6428 47.61 16.2065 47.6991 15.7778C49.1611 8.73882 48.2053 3.06805 44.9407 1.20096C41.8106 -0.588951 36.6916 1.27744 31.5218 5.7399C31.0123 6.18046 30.5141 6.63374 30.0277 7.0993C29.702 6.78974 29.3706 6.48618 29.0337 6.18877C23.6154 1.41738 18.1845 -0.5936 14.9234 1.27883C11.7961 3.07433 10.8701 8.40524 12.1863 15.0763C12.3173 15.737 12.4651 16.3943 12.6298 17.0475C11.861 17.2641 11.1192 17.4947 10.4093 17.7402C4.0568 19.9369 0 23.3794 0 26.9501C0 30.638 4.35516 34.3371 10.9716 36.5801C11.508 36.7611 12.0489 36.9289 12.5937 37.0834C12.4168 37.7869 12.2597 38.4953 12.1226 39.2075C10.8677 45.7628 11.8477 50.9677 14.9665 52.7518C18.1877 54.5943 23.5943 52.7007 28.8586 48.1364C29.2854 47.7653 29.7029 47.3837 30.1106 46.992C30.6374 47.4961 31.1782 47.9856 31.7325 48.4598C36.832 52.8118 41.8683 54.5692 44.9841 52.7802C48.2023 50.9324 49.2483 45.3409 47.8903 38.5381C47.7833 38.0051 47.6634 37.4748 47.5305 36.9476C47.9102 36.836 48.2829 36.7212 48.6462 36.6017C55.5246 34.3415 60 30.6873 60 26.9501C60 23.3664 55.8122 19.9007 49.332 17.6881ZM47.8402 34.1888C47.5117 34.2964 47.1758 34.4006 46.8323 34.5015C46.073 32.1172 45.0483 29.582 43.7941 26.9624C44.9909 24.4054 45.9762 21.9026 46.7142 19.5338C47.328 19.71 47.9236 19.8958 48.4978 20.0917C54.0502 21.9877 57.4369 24.7904 57.4369 26.9501C57.4369 29.2505 53.7792 32.2369 47.8402 34.1888ZM45.3759 39.0318C45.9764 42.0398 46.062 44.7595 45.6642 46.8858C45.307 48.7964 44.5884 50.07 43.6997 50.5802C41.809 51.6658 37.7653 50.2548 33.4043 46.5327C32.8888 46.0918 32.3857 45.6368 31.8956 45.1682C33.5864 43.3343 35.276 41.2025 36.9251 38.8347C39.8257 38.5794 42.566 38.162 45.0511 37.5922C45.1738 38.0822 45.282 38.5621 45.3759 39.0318ZM20.4553 50.3926C18.608 51.0396 17.1366 51.0582 16.2471 50.5495C14.3545 49.467 13.5677 45.2877 14.6409 39.6818C14.7685 39.0193 14.9146 38.3605 15.079 37.7061C17.5366 38.2454 20.257 38.6331 23.1645 38.867C24.8248 41.1839 26.5631 43.3134 28.3151 45.1782C27.9427 45.5355 27.5616 45.8836 27.172 46.2224C24.844 48.2406 22.5112 49.6725 20.4553 50.3926ZM11.8008 34.1746C8.87508 33.1827 6.45891 31.8938 4.80281 30.4872C3.31453 29.2233 2.56336 27.9683 2.56336 26.9501C2.56336 24.7832 5.82047 22.0193 11.253 20.1408C11.9123 19.913 12.6023 19.698 13.3184 19.4962C14.0693 21.9184 15.0541 24.451 16.2427 27.012C15.0387 29.6108 14.0398 32.1839 13.2816 34.6347C12.7843 34.4933 12.2905 34.34 11.8008 34.1746ZM14.7019 14.5879C13.5743 8.87248 14.3231 4.56111 16.2077 3.47903C18.2149 2.32651 22.6535 3.96975 27.3319 8.0898C27.637 8.35906 27.9371 8.63379 28.2321 8.91386C26.4888 10.7705 24.7664 12.8842 23.1209 15.1874C20.299 15.4468 17.5978 15.8634 15.1144 16.4215C14.9613 15.8139 14.8238 15.2024 14.7019 14.5879ZM40.5832 20.9267C39.9966 19.9218 39.3883 18.9295 38.7586 17.9506C40.673 18.1907 42.5072 18.5094 44.2296 18.899C43.7126 20.5429 43.068 22.2615 42.3094 24.0235C41.7548 22.9799 41.1793 21.9475 40.5832 20.9267ZM30.0288 10.731C31.211 12.0013 32.3951 13.4196 33.5597 14.9584C31.1972 14.8477 28.8307 14.8473 26.4682 14.957C27.634 13.4323 28.8281 12.016 30.0288 10.731ZM19.4067 20.9439C18.818 21.9565 18.2533 22.9825 17.7129 24.0212C16.9666 22.2654 16.328 20.539 15.8065 18.8718C17.5184 18.492 19.3439 18.1814 21.2461 17.9457C20.6094 18.9306 19.9961 19.9305 19.4067 20.9439ZM21.3007 36.1352C19.3355 35.9176 17.4825 35.6231 15.7711 35.2535C16.3008 33.5565 16.9535 31.7934 17.7159 30C18.2585 31.0394 18.8256 32.0661 19.4168 33.0791C20.0248 34.1205 20.6543 35.1405 21.3007 36.1352ZM30.0996 43.3483C28.8846 42.0484 27.6729 40.6102 26.4895 39.0634C27.6384 39.108 28.8096 39.1308 30 39.1308C31.223 39.1308 32.4319 39.1036 33.6218 39.0511C32.4534 40.6258 31.2738 42.0661 30.0996 43.3483ZM42.3335 29.9084C43.1355 31.7215 43.8115 33.4754 44.3482 35.1433C42.6087 35.5371 40.7304 35.8541 38.7513 36.0896C39.3855 35.0925 39.9996 34.083 40.5933 33.0616C41.1969 32.0235 41.7771 30.9721 42.3335 29.9084ZM38.373 31.7915C37.4641 33.3574 36.5042 34.8935 35.4947 36.3976C33.666 36.5261 31.8333 36.59 30 36.5889C28.1327 36.5889 26.3166 36.5313 24.5677 36.4188C23.5317 34.9182 22.5535 33.3794 21.6349 31.8054C20.7206 30.2399 19.8668 28.6405 19.0751 27.0106C19.8649 25.3803 20.7162 23.7801 21.6274 22.2134L21.6272 22.2136C22.5379 20.6464 23.5084 19.1141 24.5365 17.62C26.3208 17.4861 28.1505 17.4164 29.9998 17.4164C31.8574 17.4164 33.6898 17.4868 35.4736 17.6217C36.4913 19.1135 37.4556 20.6405 38.3646 22.1999C39.2787 23.7632 40.1413 25.3556 40.9512 26.9745C40.1496 28.61 39.2897 30.2167 38.373 31.7915ZM43.6605 3.40302C45.6696 4.55228 46.451 9.18676 45.1887 15.2643C45.1077 15.6524 45.0179 16.0468 44.9191 16.4475C42.4296 15.8775 39.7266 15.4538 36.8965 15.1904C35.2479 12.8619 33.5395 10.7449 31.8246 8.91223C32.2741 8.48255 32.7342 8.064 33.2046 7.65697C37.6343 3.83376 41.7743 2.32419 43.6605 3.40302ZM30 21.6362C32.959 21.6362 35.3578 24.0154 35.3578 26.9501C35.3578 29.8849 32.959 32.2641 30 32.2641C27.041 32.2641 24.6422 29.8849 24.6422 26.9501C24.6422 24.0154 27.041 21.6362 30 21.6362Z" fill="#00D8FF"/>
</svg>
