<svg width="60" height="61" viewBox="0 0 60 61" fill="none" xmlns="http://www.w3.org/2000/svg">
<g clip-path="url(#clip0_2033_1163)">
<path d="M45.9375 0.4375H14.0625C6.296 0.4375 0 6.7335 0 14.5V46.375C0 54.1415 6.296 60.4375 14.0625 60.4375H45.9375C53.704 60.4375 60 54.1415 60 46.375V14.5C60 6.7335 53.704 0.4375 45.9375 0.4375Z" fill="#F4F2ED"/>
<path fill-rule="evenodd" clip-rule="evenodd" d="M19.4531 26.2188C20.8594 20.5938 24.375 17.7812 30 17.7812C38.4375 17.7812 39.4922 24.1094 43.7109 25.1641C46.5234 25.8675 48.9844 24.8128 51.0938 22C49.6875 27.625 46.1719 30.4375 40.5469 30.4375C32.1094 30.4375 31.0547 24.1094 26.8359 23.0547C24.0234 22.3516 21.5625 23.4062 19.4531 26.2188ZM8.90625 38.875C10.3125 33.25 13.8281 30.4375 19.4531 30.4375C27.8906 30.4375 28.9453 36.7656 33.1641 37.8203C35.9766 38.5238 38.4375 37.4691 40.5469 34.6562C39.1406 40.2812 35.625 43.0938 30 43.0938C21.5625 43.0938 20.5078 36.7656 16.2891 35.7109C13.4766 35.0075 11.0156 36.0622 8.90625 38.875Z" fill="url(#paint0_linear_2033_1163)"/>
</g>
<defs>
<linearGradient id="paint0_linear_2033_1163" x1="20.2734" y1="17.7812" x2="38.3203" y2="43.9141" gradientUnits="userSpaceOnUse">
<stop stop-color="#32B1C1"/>
<stop offset="1" stop-color="#14C6B7"/>
</linearGradient>
<clipPath id="clip0_2033_1163">
<rect width="60" height="60" fill="white" transform="translate(0 0.4375)"/>
</clipPath>
</defs>
</svg>
