<svg width="255" height="255" viewBox="0 0 255 255" fill="none" xmlns="http://www.w3.org/2000/svg">
<g clip-path="url(#clip0_9_20)">
<path d="M195.234 0H59.7656C26.758 0 0 26.758 0 59.7656V195.234C0 228.242 26.758 255 59.7656 255H195.234C228.242 255 255 228.242 255 195.234V59.7656C255 26.758 228.242 0 195.234 0Z" fill="#F4F2ED"/>
<path d="M123.743 228.105L90.269 208.074V89.9572L39.8438 119.988L39.9663 75.2499L123.743 25.8984V228.105ZM131.269 25.8984V228.105L164.747 208.074V151.188L190.018 166.243L189.867 127.334L164.747 112.547V89.9572L215.156 119.988L215.035 75.2499L131.269 25.8984Z" fill="#FF6F00"/>
</g>
<defs>
<clipPath id="clip0_9_20">
<rect width="255" height="255" fill="white"/>
</clipPath>
</defs>
</svg>
