<svg width="61" height="61" viewBox="0 0 61 61" fill="none" xmlns="http://www.w3.org/2000/svg">
<g clip-path="url(#clip0_2033_1231)">
<path d="M6.69287 0.4375H54.9741C58.2202 0.4375 60.8335 3.05078 60.8335 6.29688V54.5781C60.8335 57.8242 58.2202 60.4375 54.9741 60.4375H6.69287C3.44678 60.4375 0.833496 57.8242 0.833496 54.5781V6.29688C0.833496 3.05078 3.44678 0.4375 6.69287 0.4375Z" fill="url(#paint0_linear_2033_1231)"/>
<path d="M37.546 8.2373H50.221C51.7792 8.2373 53.0335 9.49168 53.0335 11.0498V31.6748C53.0335 33.2329 51.7792 34.4873 50.221 34.4873H37.546C35.9879 34.4873 34.7335 33.2329 34.7335 31.6748V11.0498C34.7335 9.49168 35.9879 8.2373 37.546 8.2373ZM11.446 8.2373H24.121C25.6792 8.2373 26.9335 9.49168 26.9335 11.0498V46.6748C26.9335 48.2329 25.6792 49.4873 24.121 49.4873H11.446C9.88792 49.4873 8.63354 48.2329 8.63354 46.6748V11.0498C8.63354 9.49168 9.88792 8.2373 11.446 8.2373Z" fill="white"/>
</g>
<defs>
<linearGradient id="paint0_linear_2033_1231" x1="30.8335" y1="0.4375" x2="30.8335" y2="60.4375" gradientUnits="userSpaceOnUse">
<stop stop-color="#2684FF"/>
<stop offset="1" stop-color="#0052CC"/>
</linearGradient>
<clipPath id="clip0_2033_1231">
<rect width="60" height="60" fill="white" transform="translate(0.833496 0.4375)"/>
</clipPath>
</defs>
</svg>
