<svg width="61" height="60" viewBox="0 0 61 60" fill="none" xmlns="http://www.w3.org/2000/svg">
<g clip-path="url(#clip0_2033_1158)">
<path d="M46.4375 0H14.5625C6.796 0 0.5 6.296 0.5 14.0625V45.9375C0.5 53.704 6.796 60 14.5625 60H46.4375C54.204 60 60.5 53.704 60.5 45.9375V14.0625C60.5 6.296 54.204 0 46.4375 0Z" fill="#007ACC"/>
<path d="M13.768 30.1989L13.749 32.6561H21.5584V54.8465H27.0824V32.6561H34.8918V30.2465C34.8918 28.9131 34.8634 27.7989 34.8252 27.7703C34.7966 27.7324 30.0442 27.7131 24.2823 27.7228L13.7966 27.7513L13.768 30.1989ZM48.9139 27.6815C50.4376 28.0626 51.5996 28.7388 52.6663 29.8434C53.2187 30.434 54.0376 31.5103 54.1044 31.7674C54.1234 31.8435 51.5139 33.596 49.933 34.5768C49.8758 34.615 49.6471 34.3673 49.39 33.9864C48.6186 32.8626 47.8091 32.3767 46.5709 32.2912C44.7519 32.1672 43.5805 33.1197 43.5901 34.7102C43.5901 35.1768 43.6567 35.4529 43.8472 35.834C44.2471 36.6625 44.99 37.1578 47.3235 38.1672C51.6186 40.015 53.4566 41.234 54.5997 42.9672C55.8758 44.9006 56.1615 47.9863 55.2948 50.2816C54.3425 52.7767 51.9805 54.472 48.6566 55.034C47.6282 55.2149 45.19 55.1863 44.0854 54.9864C41.6757 54.5578 39.3901 53.3674 37.9806 51.8055C37.4282 51.1959 36.3519 49.6054 36.4187 49.491C36.4471 49.4531 36.6948 49.3007 36.9709 49.1388C37.2376 48.9864 38.2473 48.4054 39.1996 47.853L40.9234 46.8529L41.2853 47.3863C41.7901 48.1577 42.8947 49.2149 43.5615 49.5672C45.4757 50.5769 48.1044 50.4339 49.3996 49.2721C49.952 48.7673 50.1805 48.2435 50.1805 47.4721C50.1805 46.7767 50.0947 46.4721 49.7329 45.9482C49.2662 45.2817 48.3139 44.7196 45.609 43.5482C42.5139 42.2149 41.1805 41.3863 39.9615 40.072C39.2568 39.3103 38.59 38.091 38.3139 37.072C38.0854 36.2245 38.0282 34.1006 38.2091 33.2435C38.8471 30.2531 41.1043 28.1674 44.3614 27.5481C45.4187 27.3482 47.8757 27.4244 48.9139 27.6815Z" fill="white"/>
</g>
<defs>
<clipPath id="clip0_2033_1158">
<rect width="60" height="60" fill="white" transform="translate(0.5)"/>
</clipPath>
</defs>
</svg>
