<svg width="61" height="61" viewBox="0 0 61 61" fill="none" xmlns="http://www.w3.org/2000/svg">
<g clip-path="url(#clip0_2033_1168)">
<path d="M59.9682 9.29474L31.7832 59.4982C31.2012 60.5347 29.7061 60.5408 29.1155 59.5094L0.371751 9.29941C-0.271843 8.17552 0.693079 6.81396 1.97183 7.04182L30.1871 12.0652C30.3671 12.0975 30.5514 12.0972 30.7313 12.0643L58.3564 7.04882C59.6309 6.81746 60.6003 8.16851 59.9682 9.29474Z" fill="url(#paint0_linear_2033_1168)"/>
<path d="M43.6273 0.452233L22.7698 4.52336C22.6032 4.55596 22.4522 4.64275 22.3404 4.77011C22.2287 4.89747 22.1626 5.05818 22.1525 5.22702L20.8695 26.8121C20.8625 26.9305 20.8832 27.0489 20.9301 27.1579C20.977 27.2669 21.0488 27.3635 21.1397 27.44C21.2306 27.5166 21.3382 27.5709 21.4539 27.5988C21.5697 27.6267 21.6903 27.6274 21.8063 27.6007L27.6134 26.2658C28.1567 26.1409 28.6477 26.6176 28.5359 27.1618L26.8107 35.5774C26.6947 36.1438 27.2283 36.628 27.7836 36.4599L31.3704 35.3746C31.9264 35.2065 32.4608 35.6921 32.3431 36.2589L29.6014 49.4778C29.4298 50.3048 30.534 50.7556 30.9943 50.0468L31.302 49.5733L48.2979 15.7866C48.5827 15.2209 48.0917 14.5758 47.4683 14.6958L41.4905 15.8449C40.929 15.9528 40.4511 15.4317 40.6095 14.8845L44.5109 1.41247C44.6696 0.863829 44.1896 0.342506 43.6273 0.452233Z" fill="url(#paint1_linear_2033_1168)"/>
</g>
<defs>
<linearGradient id="paint0_linear_2033_1168" x1="-49.5132" y1="414.583" x2="2974.86" y2="4538" gradientUnits="userSpaceOnUse">
<stop stop-color="#41D1FF"/>
<stop offset="1" stop-color="#BD34FE"/>
</linearGradient>
<linearGradient id="paint1_linear_2033_1168" x1="1214.26" y1="112.45" x2="1834.83" y2="4386.08" gradientUnits="userSpaceOnUse">
<stop stop-color="#FFEA83"/>
<stop offset="0.08333" stop-color="#FFDD35"/>
<stop offset="1" stop-color="#FFA800"/>
</linearGradient>
<clipPath id="clip0_2033_1168">
<rect width="60" height="60" fill="white" transform="translate(0.166748 0.4375)"/>
</clipPath>
</defs>
</svg>
