<svg width="61" height="60" viewBox="0 0 61 60" fill="none" xmlns="http://www.w3.org/2000/svg">
<g clip-path="url(#clip0_2033_1144)">
<path d="M53.6844 25.9004C53.6602 25.9004 53.6366 25.9075 53.6165 25.921L52.5168 26.5632C52.4961 26.576 52.4791 26.594 52.4674 26.6154C52.4557 26.6367 52.4498 26.6607 52.4502 26.6851V27.9695C52.4502 28.0238 52.476 28.0651 52.5168 28.0923L53.6165 28.7335C53.6366 28.747 53.6602 28.7542 53.6844 28.7542C53.7086 28.7542 53.7323 28.747 53.7524 28.7335L54.8502 28.0923C54.8711 28.0792 54.8882 28.061 54.9001 28.0394C54.912 28.0178 54.9182 27.9936 54.9182 27.969V26.686C54.9184 26.6615 54.9123 26.6374 54.9004 26.6161C54.8885 26.5947 54.8712 26.5768 54.8502 26.5641L53.7519 25.9215C53.732 25.9081 53.7085 25.9005 53.6844 25.9004ZM29.7346 33.5804C29.5344 33.5804 29.3352 33.6291 29.1655 33.7248L23.7519 36.878C23.5785 36.9799 23.4347 37.1254 23.3349 37.3001C23.235 37.4748 23.1826 37.6725 23.1829 37.8737V44.1657C23.1829 44.5754 23.3994 44.9579 23.7519 45.1632L25.1769 45.9816C25.8688 46.3229 26.113 46.322 26.4247 46.322C27.4419 46.322 28.0255 45.6943 28.0255 44.6157V38.4071C28.0249 38.3639 28.0076 38.3226 27.9772 38.2919C27.9467 38.2612 27.9056 38.2435 27.8624 38.2426H27.1715C27.1281 38.2433 27.0867 38.2609 27.0561 38.2916C27.0255 38.3223 27.008 38.3637 27.0074 38.4071V44.6171C27.0074 45.0948 26.5063 45.5734 25.7061 45.1641L24.2272 44.304C24.1729 44.2768 24.1452 44.2074 24.1452 44.153V37.8596C24.1452 37.8052 24.1729 37.7377 24.2272 37.7101L29.639 34.5709C29.6797 34.5437 29.7482 34.5437 29.8026 34.5709L35.2157 37.7101C35.2696 37.7377 35.2963 37.7916 35.2963 37.8601V44.1526C35.2963 44.2205 35.2696 44.2763 35.2157 44.3035L29.8026 47.4568C29.7618 47.484 29.6933 47.484 29.639 47.4568L28.2557 46.6229C28.2149 46.5957 28.1605 46.5821 28.1197 46.6093C27.7401 46.8277 27.6735 46.8563 27.3069 46.9791C27.2254 47.0063 27.0899 47.0602 27.3608 47.2102L29.1655 48.2893C29.3418 48.3845 29.5311 48.4388 29.7346 48.4388C29.938 48.4388 30.141 48.3849 30.3036 48.317L35.7172 45.1637C35.891 45.0616 36.0349 44.9158 36.1348 44.7408C36.2346 44.5658 36.2869 44.3677 36.2863 44.1662V37.8737C36.2863 37.464 36.0697 37.0829 35.7172 36.878L30.3036 33.7248C30.1293 33.6291 29.9334 33.5795 29.7346 33.5804ZM38.1861 36.4538C37.9083 36.4549 37.6423 36.5663 37.4466 36.7635C37.2508 36.9606 37.1414 37.2274 37.1422 37.5052C37.1415 37.783 37.251 38.0497 37.4467 38.2467C37.6425 38.4438 37.9084 38.5551 38.1861 38.5562C38.7566 38.5562 39.2305 38.0785 39.2305 37.5052C39.2291 37.2281 39.1188 36.9626 38.9234 36.766C38.728 36.5694 38.4633 36.457 38.1861 36.4538ZM38.1721 36.6315C38.2876 36.6301 38.4023 36.6516 38.5095 36.6949C38.6166 36.7382 38.7141 36.8024 38.7962 36.8837C38.8784 36.965 38.9435 37.0618 38.9879 37.1685C39.0323 37.2752 39.055 37.3897 39.0547 37.5052C39.0547 37.9834 38.661 38.393 38.1726 38.393C37.6982 38.393 37.3044 37.9965 37.3044 37.5052C37.3044 37.014 37.7113 36.6315 38.1721 36.6315ZM37.7929 36.9179V38.1188H38.0244V37.6426H38.2279C38.3094 37.6426 38.3361 37.6698 38.3497 37.7377C38.3497 37.7518 38.39 38.0518 38.39 38.1062H38.6338C38.6066 38.0518 38.593 37.8877 38.5794 37.7921C38.5663 37.6421 38.5532 37.5329 38.39 37.5193C38.4716 37.4916 38.6071 37.4509 38.6071 37.2324C38.6071 36.9184 38.3352 36.9184 38.2002 36.9184L37.7929 36.9179ZM37.9968 37.1091H38.1861C38.2546 37.1091 38.3624 37.1091 38.3624 37.2727C38.3624 37.3271 38.3361 37.4373 38.1861 37.4373H37.9963L37.9968 37.1091ZM31.214 38.0513C29.6671 38.0513 28.7446 38.7066 28.7446 39.8124C28.7446 41.0002 29.6671 41.3265 31.146 41.477C32.9226 41.6546 33.0585 41.9143 33.0585 42.2691C33.0585 42.8832 32.5691 43.1429 31.4296 43.1429C29.9915 43.1429 29.6797 42.7876 29.571 42.0643C29.571 41.9823 29.5044 41.9284 29.4229 41.9284H28.7174C28.6743 41.9289 28.6331 41.9463 28.6028 41.9769C28.5724 42.0075 28.5553 42.0488 28.5552 42.092C28.5552 43.0201 29.0432 44.1123 31.4179 44.1123C33.1265 44.1123 34.1169 43.4288 34.1169 42.2279C34.1169 41.0537 33.3294 40.7401 31.6616 40.5216C29.9788 40.3032 29.803 40.1804 29.803 39.7848C29.803 39.4571 29.9521 39.0207 31.1999 39.0207C32.3122 39.0207 32.7322 39.2668 32.8954 40.0173C32.9035 40.0511 32.9226 40.0814 32.9496 40.1034C32.9766 40.1254 33.0101 40.138 33.0449 40.1391H33.7635C33.8047 40.1391 33.8455 40.1124 33.8732 40.0852C33.8978 40.0487 33.9116 40.006 33.913 39.962C33.8047 38.6518 32.9507 38.0513 31.214 38.0513Z" fill="#5FA04E"/>
<path d="M40.4464 11.5611C40.3887 11.5602 40.3317 11.5746 40.2814 11.6028C40.229 11.6335 40.1854 11.6771 40.1546 11.7295C40.1239 11.7818 40.107 11.8412 40.1056 11.9019V20.7748C40.1056 20.8564 40.0634 20.9389 39.9823 20.9933C39.9448 21.0134 39.903 21.0239 39.8604 21.0239C39.8179 21.0239 39.776 21.0134 39.7386 20.9933L38.3014 20.1612C38.1959 20.101 38.0765 20.0693 37.955 20.0693C37.8335 20.0693 37.7141 20.101 37.6086 20.1612L31.8579 23.5058C31.7515 23.5658 31.6628 23.6528 31.6009 23.7581C31.5389 23.8634 31.5058 23.9831 31.505 24.1053V30.7803C31.505 31.0259 31.6409 31.2584 31.8579 31.3812L37.6095 34.7258C37.7149 34.7859 37.8343 34.8176 37.9557 34.8176C38.0771 34.8176 38.1964 34.7859 38.3018 34.7258L44.0529 31.3812C44.27 31.2584 44.4059 31.0259 44.4059 30.7803V14.1411C44.4059 13.8819 44.27 13.6489 44.0529 13.5265L40.6217 11.6028C40.5674 11.5756 40.5071 11.5613 40.4464 11.5611ZM6.51591 19.8889C6.40762 19.8889 6.29934 19.9283 6.20466 19.9826L0.453093 23.315C0.344997 23.3765 0.255288 23.4658 0.193235 23.5735C0.131183 23.6813 0.0990388 23.8037 0.100124 23.9281L0.114187 32.8822C0.114187 33.0054 0.181218 33.1283 0.289968 33.1831C0.340383 33.2162 0.399362 33.2338 0.459656 33.2338C0.519949 33.2338 0.578928 33.2162 0.629343 33.1831L4.04841 31.2176C4.26544 31.0948 4.39997 30.8623 4.39997 30.6167V26.4261C4.39997 26.1804 4.53591 25.9479 4.75341 25.8251L6.20466 24.979C6.31294 24.9106 6.43575 24.8834 6.55762 24.8834C6.6795 24.8834 6.80184 24.9106 6.897 24.979L8.34825 25.8251C8.56528 25.9479 8.70122 26.1804 8.70122 26.4261V30.6167C8.70122 30.8623 8.83622 31.0948 9.05278 31.2176L12.4447 33.1831C12.4974 33.2167 12.5586 33.2346 12.6211 33.2346C12.6837 33.2346 12.7449 33.2167 12.7976 33.1831C12.8516 33.1537 12.8966 33.1102 12.9276 33.0572C12.9587 33.0041 12.9747 32.9436 12.9739 32.8822V23.9281C12.9739 23.6825 12.8379 23.45 12.6204 23.3267L6.88294 19.9826C6.78628 19.9313 6.68056 19.8993 6.57169 19.8884L6.51591 19.8889ZM53.7036 19.9873C53.585 19.9873 53.4673 20.0183 53.3586 20.0801L47.6061 23.4228C47.389 23.5456 47.2545 23.7781 47.2545 24.0242V30.6992C47.2545 30.9448 47.389 31.1773 47.6061 31.3001L53.3173 34.5753C53.4202 34.6356 53.5372 34.6674 53.6565 34.6674C53.7757 34.6674 53.8927 34.6356 53.9956 34.5753L57.455 32.6379C57.5089 32.6085 57.5537 32.5649 57.5847 32.5119C57.6157 32.4589 57.6316 32.3984 57.6307 32.337C57.6314 32.2758 57.6154 32.2155 57.5845 32.1626C57.5535 32.1098 57.5087 32.0664 57.455 32.037L51.6767 28.692C51.6241 28.6611 51.5804 28.6173 51.5496 28.5647C51.5188 28.5121 51.5021 28.4525 51.5009 28.3915V26.3028C51.5002 26.2415 51.5162 26.1813 51.5472 26.1284C51.5782 26.0756 51.6229 26.0321 51.6767 26.0028L53.4814 24.965C53.5341 24.9313 53.5953 24.9135 53.6579 24.9135C53.7204 24.9135 53.7816 24.9313 53.8343 24.965L55.6372 26.0023C55.69 26.033 55.734 26.0768 55.765 26.1294C55.7961 26.182 55.813 26.2417 55.8143 26.3028V27.9411C55.8143 28.0644 55.8818 28.1872 55.9901 28.2415C56.0429 28.2753 56.1042 28.2932 56.1668 28.2932C56.2295 28.2932 56.2908 28.2753 56.3436 28.2415L59.7612 26.2353C59.866 26.1741 59.9527 26.0862 60.0123 25.9805C60.072 25.8748 60.1024 25.7552 60.1006 25.6339V24.0097C60.1006 23.764 59.9647 23.5329 59.7612 23.4097L54.05 20.0797C53.9446 20.0194 53.8254 19.9874 53.704 19.9869L53.7036 19.9873ZM37.955 24.972C37.9854 24.972 38.0164 24.979 38.044 24.9931L40.01 26.1397C40.0643 26.1669 40.092 26.2344 40.092 26.2892V28.5823C40.092 28.6508 40.0643 28.7061 40.01 28.7333L38.0436 29.8798C38.016 29.8933 37.9857 29.9003 37.955 29.9003C37.9243 29.9003 37.894 29.8933 37.8664 29.8798L35.9 28.7333C35.8456 28.7061 35.8179 28.6372 35.8179 28.5823V26.2892C35.8179 26.2208 35.8461 26.1669 35.9 26.1392L37.8664 24.9931C37.8939 24.9788 37.924 24.9716 37.955 24.972Z" fill="#333333"/>
<path d="M22.5917 20.1061C22.4864 20.0455 22.3672 20.0137 22.2457 20.0137C22.1243 20.0137 22.0051 20.0455 21.8998 20.1061L16.1886 23.4234C16.0839 23.4845 15.9973 23.5723 15.9377 23.6778C15.8781 23.7833 15.8475 23.9027 15.8492 24.0239V30.6712C15.8492 30.9173 15.9851 31.1494 16.1886 31.2722L21.8998 34.589C22.0051 34.6496 22.1243 34.6814 22.2457 34.6814C22.3672 34.6814 22.4864 34.6496 22.5917 34.589L28.3025 31.2722C28.5195 31.1494 28.6418 30.9173 28.6418 30.6712V24.0239C28.6418 23.7783 28.5059 23.5458 28.3025 23.4234L22.5917 20.1061Z" fill="url(#paint0_linear_2033_1144)"/>
<path d="M28.316 23.4234L22.578 20.1061C22.5217 20.0775 22.4626 20.0548 22.4017 20.0381L15.9714 31.1081C16.0258 31.1765 16.0933 31.2309 16.1613 31.2721L21.8997 34.589C22.0624 34.6846 22.2522 34.7118 22.4285 34.657L28.4655 23.5462C28.4258 23.4942 28.3747 23.4522 28.316 23.4234Z" fill="url(#paint1_linear_2033_1144)"/>
<path d="M28.316 31.2717C28.4791 31.1761 28.601 31.0125 28.6554 30.8349L22.3741 20.0241C22.2119 19.9969 22.0352 20.0105 21.8861 20.1061L16.1885 23.4094L22.3338 34.6842C22.4149 34.6706 22.51 34.6435 22.5916 34.6022L28.316 31.2717Z" fill="url(#paint2_linear_2033_1144)"/>
</g>
<defs>
<linearGradient id="paint0_linear_2033_1144" x1="24.5714" y1="22.5763" x2="19.3557" y2="33.1502" gradientUnits="userSpaceOnUse">
<stop stop-color="#3F873F"/>
<stop offset="0.33" stop-color="#3F8B3D"/>
<stop offset="0.637" stop-color="#3E9638"/>
<stop offset="0.934" stop-color="#3DA92E"/>
<stop offset="1" stop-color="#3DAE2B"/>
</linearGradient>
<linearGradient id="paint1_linear_2033_1144" x1="21.3778" y1="28.1238" x2="35.9302" y2="17.4378" gradientUnits="userSpaceOnUse">
<stop offset="0.138" stop-color="#3F873F"/>
<stop offset="0.402" stop-color="#52A044"/>
<stop offset="0.713" stop-color="#64B749"/>
<stop offset="0.908" stop-color="#6ABF4B"/>
</linearGradient>
<linearGradient id="paint2_linear_2033_1144" x1="15.6402" y1="27.3453" x2="28.8554" y2="27.3453" gradientUnits="userSpaceOnUse">
<stop offset="0.092" stop-color="#6ABF4B"/>
<stop offset="0.287" stop-color="#64B749"/>
<stop offset="0.598" stop-color="#52A044"/>
<stop offset="0.862" stop-color="#3F873F"/>
</linearGradient>
<clipPath id="clip0_2033_1144">
<rect width="60" height="60" fill="white" transform="translate(0.100098)"/>
</clipPath>
</defs>
</svg>
